<svg width="30" height="30" viewBox="0 0 30 30" fill="none" xmlns="http://www.w3.org/2000/svg">
<rect x="15" width="8" height="3" fill="white"/>
<rect x="10" y="3.93555" width="18" height="22.129" rx="2" stroke="white" stroke-width="4"/>
<path fill-rule="evenodd" clip-rule="evenodd" d="M10.3125 11.6128H12.6875L13.3413 14.1436C13.9957 14.3126 14.6131 14.5694 15.179 14.9003L17.4622 13.5746L19.1416 15.1998L17.7355 17.4677C18.014 17.9536 18.2335 18.4755 18.3848 19.0244L21 19.6571V21.9555L18.3848 22.5882C18.2142 23.2071 17.9569 23.7916 17.6263 24.329L19.1417 26.7734L17.4623 28.3986L14.8606 26.8879C14.384 27.1351 13.875 27.3313 13.3413 27.4691L12.6875 29.9999H10.3125L9.6587 27.4691C9.09151 27.3226 8.55218 27.1102 8.05002 26.8407L5.70657 28.2014L4.02719 26.5762L5.39707 24.3666C5.05517 23.8189 4.78978 23.2215 4.61521 22.5882L2 21.9555V19.6571L4.6152 19.0244C4.77055 18.4609 4.99782 17.9257 5.28691 17.4288L4.02719 15.397L5.70657 13.7718L7.73652 14.9505C8.32532 14.5953 8.97157 14.3211 9.6587 14.1437L10.3125 11.6128ZM11.5 24.2539C13.4675 24.2539 15.0625 22.7104 15.0625 20.8063C15.0625 18.9023 13.4675 17.3588 11.5 17.3588C9.53249 17.3588 7.9375 18.9023 7.9375 20.8063C7.9375 22.7104 9.53249 24.2539 11.5 24.2539Z" fill="#D9AE3F"/>
<path fill-rule="evenodd" clip-rule="evenodd" d="M6.09991 3.87109L7.43529 4.17777L7.45396 5.6852C7.79863 5.8647 8.11034 6.08884 8.38293 6.34797L9.84949 5.89737L10.5697 7.02802L9.46638 8.12161C9.55593 8.43081 9.6074 8.75262 9.61679 9.08078L11 9.77423L10.6831 11.0665L9.12541 11.0846C8.94418 11.4105 8.71891 11.706 8.4589 11.9654L8.97395 13.5355L7.80561 14.2324L6.55104 13.0471C6.24898 13.1245 5.93572 13.1691 5.61665 13.1777L4.90009 14.5163L3.56471 14.2096L3.54604 12.7021C3.24732 12.5466 2.97336 12.3575 2.72817 12.1411L1.22291 12.6036L0.502727 11.473L1.57762 10.4075C1.4609 10.0554 1.39405 9.6852 1.38321 9.30657L0 8.61312L0.3169 7.32081L1.87458 7.30275C2.03963 7.00595 2.2412 6.7344 2.47227 6.49229L2.04411 5.18722L3.21246 4.49027L4.19132 5.41513C4.57134 5.29148 4.97253 5.22071 5.38334 5.2097L6.09991 3.87109ZM5.02465 11.1321C6.13092 11.3862 7.24055 10.7243 7.50308 9.65369C7.76561 8.5831 7.08162 7.50927 5.97535 7.25521C4.86908 7.00115 3.75945 7.66307 3.49692 8.73366C3.23439 9.80425 3.91838 10.8781 5.02465 11.1321Z" fill="#D9AE3F"/>
</svg>
