<svg width="30" height="30" viewBox="0 0 30 30" fill="none" xmlns="http://www.w3.org/2000/svg">
<path fill-rule="evenodd" clip-rule="evenodd" d="M13.125 0H16.875L17.9073 4.12926C18.9406 4.40489 19.9154 4.82397 20.809 5.36385L24.4141 3.2008L27.0657 5.85245L24.8456 9.55267C25.2852 10.3456 25.6318 11.1971 25.8707 12.0927L30 13.125V16.875L25.8707 17.9073C25.6014 18.917 25.1951 19.8707 24.673 20.7475L27.0658 24.7357L24.4142 27.3873L20.3062 24.9225C19.5537 25.3258 18.75 25.646 17.9073 25.8707L16.875 30H13.125L12.0927 25.8707C11.1971 25.6318 10.3455 25.2852 9.55266 24.8456L5.85248 27.0657L3.20083 24.414L5.36379 20.8089C4.82396 19.9153 4.40492 18.9406 4.12928 17.9073L0 16.875V13.125L4.12927 12.0927C4.37455 11.1732 4.73339 10.3001 5.18985 9.48921L3.20083 6.1742L5.85248 3.52255L9.05767 5.44567C9.98734 4.86626 11.0077 4.41874 12.0927 4.12931L13.125 0ZM15 20.625C18.1066 20.625 20.625 18.1066 20.625 15C20.625 11.8934 18.1066 9.375 15 9.375C11.8934 9.375 9.375 11.8934 9.375 15C9.375 18.1066 11.8934 20.625 15 20.625Z" fill="#375E65"/>
</svg>
