<svg width="30" height="29" viewBox="0 0 30 29" fill="none" xmlns="http://www.w3.org/2000/svg">
<rect x="15" width="8" height="3" fill="#375E65"/>
<rect x="10" y="2.93555" width="18" height="22.129" rx="2" stroke="#375E65" stroke-width="4"/>
<path fill-rule="evenodd" clip-rule="evenodd" d="M10.3125 10.6128H12.6875L13.3413 13.1436C13.9957 13.3126 14.6131 13.5694 15.179 13.9003L17.4622 12.5746L19.1416 14.1998L17.7355 16.4677C18.014 16.9536 18.2335 17.4755 18.3848 18.0244L21 18.6571V20.9555L18.3848 21.5882C18.2142 22.2071 17.9569 22.7916 17.6263 23.329L19.1417 25.7734L17.4623 27.3986L14.8606 25.8879C14.384 26.1351 13.875 26.3313 13.3413 26.4691L12.6875 28.9999H10.3125L9.6587 26.4691C9.09151 26.3226 8.55218 26.1102 8.05002 25.8407L5.70657 27.2014L4.02719 25.5762L5.39707 23.3666C5.05517 22.8189 4.78978 22.2215 4.61521 21.5882L2 20.9555V18.6571L4.6152 18.0244C4.77055 17.4609 4.99782 16.9257 5.28691 16.4288L4.02719 14.397L5.70657 12.7718L7.73652 13.9505C8.32532 13.5953 8.97157 13.3211 9.6587 13.1437L10.3125 10.6128ZM11.5 23.2539C13.4675 23.2539 15.0625 21.7104 15.0625 19.8063C15.0625 17.9023 13.4675 16.3588 11.5 16.3588C9.53249 16.3588 7.9375 17.9023 7.9375 19.8063C7.9375 21.7104 9.53249 23.2539 11.5 23.2539Z" fill="#D9AE3F"/>
<path fill-rule="evenodd" clip-rule="evenodd" d="M6.09991 2.87109L7.43529 3.17777L7.45396 4.6852C7.79863 4.8647 8.11034 5.08884 8.38293 5.34796L9.84949 4.89737L10.5697 6.02802L9.46638 7.12161C9.55593 7.43081 9.6074 7.75262 9.61679 8.08078L11 8.77423L10.6831 10.0665L9.12541 10.0846C8.94418 10.4105 8.71891 10.706 8.4589 10.9654L8.97395 12.5355L7.80561 13.2324L6.55104 12.0471C6.24898 12.1245 5.93572 12.1691 5.61665 12.1777L4.90009 13.5163L3.56471 13.2096L3.54604 11.7021C3.24732 11.5466 2.97336 11.3575 2.72817 11.1411L1.22291 11.6036L0.502727 10.473L1.57762 9.40746C1.4609 9.05536 1.39405 8.6852 1.38321 8.30657L0 7.61312L0.3169 6.32081L1.87458 6.30275C2.03963 6.00595 2.2412 5.7344 2.47227 5.49229L2.04411 4.18722L3.21246 3.49027L4.19132 4.41513C4.57134 4.29148 4.97253 4.22071 5.38334 4.2097L6.09991 2.87109ZM5.02465 10.1321C6.13092 10.3862 7.24055 9.72428 7.50308 8.65369C7.76561 7.5831 7.08162 6.50927 5.97535 6.25521C4.86908 6.00115 3.75945 6.66307 3.49692 7.73366C3.23439 8.80425 3.91838 9.87808 5.02465 10.1321Z" fill="#D9AE3F"/>
</svg>
