<svg width="24" height="24" viewBox="0 0 24 24" fill="none" xmlns="http://www.w3.org/2000/svg">
<path d="M2 2.91304C2 1.8565 2.89543 1 4 1H20C21.1046 1 22 1.8565 22 2.91304V3.86957H2V2.91304Z" fill="#375E65"/>
<path d="M2 6.73913C2 7.79568 2.89543 8.65217 4 8.65217H20C21.1046 8.65217 22 7.79568 22 6.73913V4.82609H2V6.73913Z" fill="#375E65"/>
<path d="M2 6.73913C2 5.68259 2.89543 4.82609 4 4.82609H20C21.1046 4.82609 22 5.68259 22 6.73913V7.91258C22 8.38848 21.8146 8.84729 21.4799 9.19943L13.4799 17.6168C12.6864 18.4517 11.3136 18.4517 10.5201 17.6168L2.52012 9.19943C2.18544 8.84729 2 8.38848 2 7.91258V6.73913Z" fill="#375E65"/>
<path d="M9 8.65217H15V18.0834L9 23V8.65217Z" fill="#375E65"/>
</svg>
