<svg width="30" height="30" viewBox="0 0 30 30" fill="none" xmlns="http://www.w3.org/2000/svg">
<path d="M2.94337 15.7866H26.6931V27.6155C26.6931 28.9324 25.5953 30 24.2412 30H18.472V22.005H11.1644V30H5.39526C4.04112 30 2.94337 28.9324 2.94337 27.6155V15.7866Z" fill="#375E65"/>
<path d="M13.7193 3.41982C14.3165 2.82777 15.3197 2.82777 15.9169 3.41982L27.4762 14.8787C28.3915 15.7861 27.7074 17.2827 26.3774 17.2827H3.25886C1.92882 17.2827 1.24473 15.7861 2.16004 14.8787L13.7193 3.41982Z" fill="#375E65"/>
<path d="M16.6667 0.678936C17.6521 1.60592 17.6783 3.13431 16.7251 4.09268L4.2668 16.6187C3.3136 17.577 1.74202 17.6025 0.756555 16.6755C-0.228906 15.7485 -0.255065 14.2201 0.698127 13.2617L13.1564 0.735756C14.1096 -0.222614 15.6812 -0.248053 16.6667 0.678936Z" fill="#375E65"/>
<path d="M13.3333 0.680345C12.3479 1.60733 12.3217 3.13572 13.2749 4.09409L25.7332 16.6201C26.6864 17.5784 28.258 17.6039 29.2434 16.6769C30.2289 15.7499 30.2551 14.2215 29.3019 13.2631L16.8436 0.737165C15.8904 -0.221205 14.3188 -0.246644 13.3333 0.680345Z" fill="#375E65"/>
</svg>
