<svg width="222" height="50" viewBox="0 0 222 50" fill="none" xmlns="http://www.w3.org/2000/svg">
<path d="M0 23.0446L30.2366 41.1264L59.6774 23.4377C59.6774 23.4377 50.5269 5.74902 30.2366 5.74902C9.94624 5.74902 0 23.0446 0 23.0446Z" fill="#67A8B4"/>
<path d="M30.2366 5.74902V41.1264L59.6774 23.4377C50.5269 7.69478 36.2043 5.74902 30.2366 5.74902Z" fill="#288597"/>
<path d="M30.2366 32.8514L0 23.0244L30.2366 41.1062V32.8514Z" fill="#4193A1"/>
<path d="M59.6774 23.418L30.2366 41.1066V23.418H59.6774Z" fill="#177081"/>
<path d="M63.2283 41.9817V48.0351H62.2337V41.9817H60.4434L60.5329 41.1562H64.9291L64.8396 41.9817H63.2283Z" fill="#458896"/>
<path d="M66.8486 42.7577C67.085 42.739 67.3225 42.7756 67.5419 42.8643C67.7614 42.9531 67.9566 43.0916 68.1118 43.2687C68.3768 43.6841 68.5213 44.1634 68.5296 44.6543C68.5296 44.9098 68.5296 45.2341 68.5296 45.637L68.1218 45.696H65.5457C65.5457 46.5214 65.7645 47.0423 66.2121 47.2585C66.4537 47.3605 66.7154 47.4076 66.978 47.396C67.3717 47.3759 67.7559 47.2685 68.1019 47.0816L68.3804 47.6909C67.8841 48.0048 67.3086 48.175 66.7194 48.1822C65.297 48.1822 64.5909 47.2978 64.5909 45.5289C64.5611 44.832 64.7561 44.1438 65.1478 43.5635C65.3417 43.3006 65.5986 43.0894 65.8954 42.9488C66.1923 42.8081 66.5198 42.7425 66.8486 42.7577ZM67.4454 43.8681C67.336 43.6519 67.0973 43.5438 66.7094 43.5438C66.5526 43.5303 66.3951 43.5587 66.2533 43.6262C66.1115 43.6936 65.9908 43.7976 65.9038 43.9271C65.7235 44.2466 65.6214 44.6033 65.6054 44.9688H67.5946C67.6192 44.5957 67.5685 44.2216 67.4454 43.8681Z" fill="#458896"/>
<path d="M69.2358 43.5144C69.413 43.2735 69.6468 43.0787 69.9171 42.9469C70.1874 42.8151 70.486 42.7502 70.7874 42.7577C71.0238 42.7245 71.2649 42.7483 71.49 42.827C71.7151 42.9057 71.9177 43.037 72.0804 43.2097C72.3245 43.5975 72.4393 44.0512 72.4086 44.5069L71.5134 44.5659C71.5363 44.2931 71.4775 44.0197 71.3444 43.7797C71.2562 43.6907 71.1484 43.623 71.0293 43.5821C70.9102 43.5412 70.7831 43.5281 70.6581 43.5439C69.995 43.5439 69.6634 44.199 69.6634 45.5093C69.6634 46.777 70.1011 47.4157 70.9962 47.4157C71.4306 47.4046 71.8562 47.2935 72.2395 47.0914L72.5081 47.6811C72.2989 47.8488 72.0592 47.9755 71.8019 48.0545C71.4803 48.1552 71.1446 48.205 70.8073 48.2019C69.4048 48.2019 68.6986 47.3174 68.6986 45.5387C68.6401 44.8233 68.8295 44.1095 69.2358 43.5144Z" fill="#458896"/>
<path d="M75.0743 42.7577C75.2885 42.7474 75.5027 42.7794 75.7042 42.852C75.9058 42.9246 76.0906 43.0361 76.2479 43.1802C76.4068 43.3593 76.5275 43.5682 76.6027 43.7945C76.6779 44.0208 76.7061 44.2597 76.6856 44.497V48.0348H75.7904V44.5757C75.8045 44.4432 75.7884 44.3093 75.7434 44.1838C75.6984 44.0582 75.6256 43.9442 75.5302 43.85C75.4349 43.7558 75.3195 43.6839 75.1924 43.6394C75.0654 43.5949 74.9298 43.5791 74.7958 43.593C74.4174 43.6263 74.0641 43.7938 73.8011 44.0646V48.0839H72.906V44.3398L72.8264 42.9738L73.5525 42.8756L73.6818 43.4554C73.8328 43.2803 74.0148 43.1337 74.2189 43.023C74.4744 42.8597 74.7701 42.768 75.0743 42.7577Z" fill="#458896"/>
<path d="M78.3464 42.9842C78.686 42.8293 79.0565 42.752 79.4305 42.7582C79.7768 42.7537 80.1187 42.8348 80.4252 42.994C80.7026 43.1381 80.9233 43.3699 81.0518 43.6524C81.2983 44.2406 81.4169 44.8734 81.3999 45.5097C81.4188 46.1447 81.2457 46.7709 80.9026 47.3081C80.7248 47.5783 80.473 47.793 80.1765 47.9272C79.8373 48.0831 79.4665 48.1604 79.0924 48.1532C78.7463 48.1557 78.4049 48.0747 78.0977 47.9174C77.8223 47.769 77.6052 47.5338 77.4811 47.2491C77.2287 46.6662 77.1098 46.0353 77.133 45.4016C77.1156 44.7638 77.2886 44.135 77.6303 43.5935C77.8105 43.3316 78.0576 43.1215 78.3464 42.9842ZM80.1666 43.8981C80.0658 43.79 79.9441 43.7031 79.8085 43.6426C79.6318 43.5717 79.4421 43.5382 79.2515 43.5443C79.0622 43.5395 78.8745 43.5799 78.7045 43.6623C78.5666 43.7277 78.447 43.8255 78.3563 43.9472C78.2645 44.0835 78.2034 44.2377 78.1773 44.3993C78.1136 44.723 78.0836 45.0523 78.0878 45.382C78.0878 45.7259 78.0878 45.9716 78.0878 46.1387C78.0991 46.3052 78.1291 46.47 78.1773 46.63C78.2157 46.7829 78.2907 46.9245 78.3961 47.0428C78.5111 47.1669 78.6534 47.2634 78.812 47.3247C78.9707 47.3861 79.1414 47.4106 79.3112 47.3965C79.5005 47.4014 79.6882 47.361 79.8582 47.2786C79.9938 47.2141 80.1129 47.12 80.2063 47.0035C80.2981 46.8636 80.3591 46.7062 80.3854 46.5416C80.449 46.2179 80.4791 45.8886 80.4749 45.5589C80.4749 45.2149 80.4749 44.9693 80.4749 44.812C80.4562 44.6425 80.4229 44.4748 80.3754 44.3108C80.3345 44.1608 80.2635 44.0205 80.1666 43.8981Z" fill="#458896"/>
<path d="M82.7726 46.4622C82.7601 46.7105 82.787 46.9591 82.8522 47.1992C82.9257 47.4024 83.0487 47.5847 83.2102 47.7299L82.5439 48.2507C82.3201 48.0477 82.1377 47.8042 82.0067 47.5333C81.9027 47.2164 81.8589 46.8833 81.8774 46.5506V40.733L82.7726 40.6348V46.4622Z" fill="#458896"/>
<path d="M84.5031 42.9842C84.8427 42.8293 85.2133 42.752 85.5873 42.7582C85.9335 42.7537 86.2754 42.8348 86.5819 42.994C86.8571 43.1411 87.0769 43.372 87.2085 43.6524C87.455 44.2406 87.5736 44.8734 87.5566 45.5097C87.5755 46.1447 87.4024 46.7709 87.0593 47.3081C86.8816 47.5783 86.6298 47.793 86.3332 47.9272C85.994 48.0831 85.6232 48.1604 85.2491 48.1532C84.9031 48.1557 84.5617 48.0747 84.2545 47.9174C83.9791 47.769 83.7619 47.5338 83.6378 47.2491C83.3854 46.6662 83.2666 46.0353 83.2897 45.4016C83.2842 44.7598 83.4711 44.1306 83.8268 43.5935C83.996 43.3368 84.2288 43.1271 84.5031 42.9842ZM86.3233 43.8981C86.2226 43.79 86.1008 43.7031 85.9652 43.6426C85.7886 43.5717 85.5988 43.5382 85.4082 43.5443C85.2189 43.5395 85.0312 43.5799 84.8612 43.6623C84.7233 43.7277 84.6038 43.8255 84.5131 43.9472C84.4212 44.0835 84.3602 44.2377 84.334 44.3993C84.2704 44.723 84.2404 45.0523 84.2445 45.382C84.2445 45.7259 84.2445 45.9716 84.2445 46.1387C84.2558 46.3052 84.2858 46.47 84.334 46.63C84.3724 46.7829 84.4475 46.9245 84.5528 47.0428C84.6678 47.1669 84.8101 47.2634 84.9688 47.3247C85.1274 47.3861 85.2982 47.4106 85.4679 47.3965C85.6571 47.4006 85.8446 47.3602 86.0149 47.2786C86.1506 47.2141 86.2696 47.12 86.3631 47.0035C86.4549 46.8636 86.5158 46.7062 86.5421 46.5416C86.6058 46.2179 86.6358 45.8886 86.6316 45.5589C86.6316 45.2149 86.6316 44.9693 86.6316 44.812C86.6129 44.6425 86.5796 44.4748 86.5322 44.3108C86.4912 44.1608 86.4202 44.0205 86.3233 43.8981Z" fill="#458896"/>
<path d="M89.735 42.7575H90.0035H90.5904L92.1022 42.8165L91.9928 43.3865L91.3065 43.4553C91.4749 43.7558 91.5606 44.0946 91.5552 44.438C91.5673 44.684 91.5276 44.9298 91.4386 45.1599C91.3495 45.3899 91.2131 45.5992 91.0379 45.7745C90.631 46.1219 90.1027 46.2983 89.5659 46.2658H89.178C89.0845 46.3326 88.9979 46.4083 88.9194 46.4918C88.8814 46.5357 88.8603 46.5914 88.8597 46.6491C88.8597 46.8358 89.0686 46.9537 89.4863 46.993L90.2323 47.0618C90.6676 47.0656 91.0951 47.1771 91.4756 47.3861C91.626 47.4809 91.7479 47.6139 91.8284 47.7713C91.9089 47.9286 91.945 48.1045 91.9331 48.2804C91.9453 48.6429 91.8132 48.9957 91.5651 49.2631C91.2927 49.5131 90.971 49.705 90.6202 49.8267C90.2694 49.9485 89.8969 49.9974 89.5261 49.9706C88.1635 49.9706 87.5369 49.5677 87.5369 48.7521C87.5613 48.5538 87.6291 48.3633 87.7356 48.1936C87.8421 48.0239 87.9847 47.8791 88.1535 47.7693L88.253 47.6907L88.3525 47.6219L88.4221 47.5728C88.3022 47.5118 88.2021 47.4185 88.1335 47.3038C88.0649 47.189 88.0304 47.0575 88.0342 46.9242C88.0251 46.7711 88.0748 46.6202 88.1734 46.5017C88.3135 46.3534 88.4703 46.2214 88.6409 46.1086C88.3613 45.9735 88.1303 45.7569 87.9791 45.488C87.8279 45.2192 87.7638 44.911 87.7955 44.605C87.7811 44.3558 87.8197 44.1065 87.9088 43.8729C87.9979 43.6393 88.1355 43.4268 88.3127 43.2489C88.7032 42.9072 89.214 42.7307 89.735 42.7575ZM88.7404 49.1255C89.0531 49.2614 89.394 49.322 89.735 49.3024C90.0753 49.3119 90.414 49.2516 90.7296 49.1255C90.8504 49.088 90.9559 49.0135 91.031 48.9128C91.1061 48.8121 91.1469 48.6904 91.1474 48.5653C91.1552 48.4848 91.1419 48.4036 91.1088 48.3296C91.0757 48.2556 91.0239 48.1913 90.9584 48.1428L90.7694 48.0347C90.6817 47.9932 90.5875 47.9666 90.4909 47.9561L89.735 47.8774C89.4942 47.8619 89.2548 47.829 89.0189 47.7792C88.8299 47.9107 88.6622 48.0697 88.5215 48.2509C88.4642 48.3497 88.4334 48.4613 88.432 48.5752C88.4225 48.6845 88.4445 48.7942 88.4956 48.8916C88.5467 48.989 88.6246 49.0701 88.7205 49.1255H88.7404ZM89.6156 43.4553C89.4822 43.4423 89.3475 43.4594 89.2217 43.5054C89.0959 43.5513 88.9823 43.6249 88.8896 43.7206C88.7322 43.9629 88.6589 44.2492 88.6807 44.5363C88.6807 45.2635 89.0122 45.6271 89.6753 45.6271C89.8097 45.6411 89.9456 45.6235 90.0718 45.5757C90.198 45.5279 90.311 45.4512 90.4014 45.3519C90.5583 45.1021 90.6314 44.8098 90.6103 44.5166C90.6322 44.3774 90.6216 44.2351 90.5792 44.1005C90.5369 43.966 90.464 43.8428 90.3661 43.7404C90.2682 43.638 90.1479 43.559 90.0144 43.5096C89.8809 43.4602 89.7377 43.4416 89.5957 43.4553H89.6156Z" fill="#458896"/>
<path d="M92.6393 42.5418C92.2315 42.5418 92.0326 42.3257 92.0326 41.8736C92.0269 41.7175 92.0841 41.5655 92.1918 41.4511C92.2604 41.3871 92.342 41.3382 92.4311 41.3077C92.5203 41.2772 92.615 41.2658 92.7089 41.2742C93.1068 41.2742 93.3157 41.5002 93.3157 41.9424C93.3176 42.0997 93.2569 42.2515 93.1466 42.365C93.0795 42.4282 92.9996 42.4766 92.9121 42.5071C92.8247 42.5376 92.7317 42.5494 92.6393 42.5418ZM93.1267 48.0352H92.2315V42.9251L93.1267 42.8268V48.0352Z" fill="#458896"/>
<path d="M96.2696 44.4384C96.2696 43.8389 95.9911 43.5441 95.4441 43.5441C94.9589 43.5667 94.4797 43.6594 94.0218 43.8193L93.7035 43.2002C94.2739 42.9044 94.9094 42.7525 95.5535 42.758C96.3492 42.758 96.8465 42.9938 97.0255 43.4655C97.1296 43.7826 97.1767 44.1151 97.1648 44.4482V46.5414C97.152 46.7457 97.1816 46.9505 97.2517 47.1431C97.3218 47.3357 97.431 47.5122 97.5726 47.6617L97.0454 48.1727C96.9082 48.0857 96.7843 47.9798 96.6774 47.8582C96.5676 47.7346 96.4831 47.5911 96.4288 47.4356C96.258 47.6723 96.0306 47.8636 95.7667 47.9922C95.5029 48.1208 95.2109 48.1828 94.9169 48.1727C93.9223 48.1727 93.4946 47.6911 93.4946 46.7084C93.4946 45.7257 94.1113 45.3228 95.3446 45.1459L96.3393 45.0084L96.2696 44.4384ZM94.4196 46.7969C94.4196 47.1801 94.6583 47.3669 95.1258 47.3669C95.3414 47.374 95.556 47.3337 95.7538 47.2487C95.9517 47.1637 96.1279 47.0362 96.2696 46.8755V45.6766C95.7339 45.7017 95.2091 45.8356 94.728 46.0697C94.6231 46.1591 94.5407 46.2713 94.4872 46.3975C94.4337 46.5236 94.4106 46.6604 94.4196 46.7969Z" fill="#458896"/>
<path d="M100.825 43.5144C101.002 43.2735 101.236 43.0787 101.506 42.9469C101.777 42.8151 102.075 42.7502 102.377 42.7577C102.613 42.7245 102.854 42.7483 103.079 42.827C103.304 42.9057 103.507 43.037 103.67 43.2097C103.914 43.5975 104.029 44.0512 103.998 44.5069L103.103 44.5659C103.126 44.2931 103.067 44.0197 102.934 43.7797C102.846 43.6907 102.738 43.623 102.619 43.5821C102.5 43.5412 102.372 43.5281 102.247 43.5439C101.551 43.5439 101.203 44.199 101.203 45.5093C101.203 46.777 101.641 47.4157 102.536 47.4157C102.97 47.4046 103.396 47.2935 103.779 47.0914L104.048 47.6811C103.837 47.8467 103.598 47.9732 103.341 48.0545C103.02 48.1552 102.684 48.205 102.347 48.2019C100.934 48.2019 100.238 47.3174 100.238 45.5387C100.194 44.8176 100.401 44.1032 100.825 43.5144Z" fill="#458896"/>
<path d="M105.281 42.9842C105.621 42.8293 105.991 42.752 106.365 42.7582C106.728 42.7453 107.088 42.8266 107.409 42.994C107.685 43.1411 107.904 43.372 108.036 43.6524C108.283 44.2406 108.401 44.8734 108.384 45.5097C108.403 46.1447 108.23 46.7709 107.887 47.3081C107.706 47.5759 107.455 47.7899 107.161 47.9272C106.822 48.0831 106.451 48.1604 106.077 48.1532C105.714 48.1639 105.354 48.0827 105.032 47.9174C104.757 47.769 104.54 47.5338 104.416 47.2491C104.163 46.6662 104.044 46.0353 104.068 45.4016C104.045 44.7632 104.219 44.133 104.565 43.5935C104.745 43.3316 104.992 43.1215 105.281 42.9842ZM107.101 43.8981C107 43.79 106.879 43.7031 106.743 43.6426C106.566 43.5717 106.377 43.5382 106.186 43.5443C105.997 43.5395 105.809 43.5799 105.639 43.6623C105.501 43.7277 105.382 43.8255 105.291 43.9472C105.199 44.0835 105.138 44.2377 105.112 44.3993C105.048 44.723 105.018 45.0523 105.022 45.382C105.022 45.726 105.022 45.9716 105.022 46.1387C105.034 46.3052 105.064 46.47 105.112 46.63C105.15 46.7829 105.225 46.9245 105.331 47.0428C105.446 47.1669 105.588 47.2634 105.747 47.3247C105.905 47.3861 106.076 47.4106 106.246 47.3965C106.435 47.4006 106.622 47.3602 106.793 47.2786C106.928 47.2141 107.047 47.12 107.141 47.0035C107.233 46.8636 107.294 46.7062 107.32 46.5416C107.384 46.2179 107.414 45.8886 107.409 45.5589C107.409 45.2149 107.409 44.9693 107.409 44.812C107.391 44.6425 107.357 44.4748 107.31 44.3108C107.269 44.1608 107.198 44.0205 107.101 43.8981Z" fill="#458896"/>
<path d="M109.687 43.4059C109.836 43.1928 110.037 43.0212 110.272 42.9075C110.508 42.7939 110.768 42.7422 111.03 42.7573C111.287 42.7366 111.545 42.7895 111.772 42.9098C112 43.03 112.188 43.2125 112.313 43.4354C112.487 43.2111 112.714 43.0321 112.974 42.914C113.234 42.7958 113.519 42.742 113.805 42.7573C114.015 42.7452 114.226 42.7805 114.421 42.8605C114.615 42.9405 114.789 43.0632 114.929 43.2192C115.205 43.5873 115.342 44.0392 115.317 44.4967V48.0345H114.421V44.5753C114.421 43.8973 114.123 43.5926 113.536 43.5926C113.343 43.5801 113.151 43.617 112.976 43.6996C112.802 43.7822 112.652 43.9078 112.542 44.0643V48.0836H111.676V44.5753C111.676 43.8973 111.378 43.5926 110.791 43.5926C110.598 43.5801 110.405 43.617 110.231 43.6996C110.057 43.7822 109.907 43.9078 109.797 44.0643V48.0836H108.901V44.3395L108.822 42.9735L109.548 42.8753L109.677 43.4551L109.687 43.4059Z" fill="#458896"/>
<path d="M116.988 42.9842C117.327 42.8293 117.698 42.752 118.072 42.7582C118.418 42.7537 118.76 42.8348 119.067 42.994C119.342 43.1411 119.562 43.372 119.693 43.6524C119.94 44.2406 120.058 44.8734 120.041 45.5097C120.06 46.1447 119.887 46.7709 119.544 47.3081C119.363 47.5759 119.112 47.7899 118.818 47.9272C118.479 48.0831 118.108 48.1604 117.734 48.1532C117.388 48.1557 117.046 48.0747 116.739 47.9174C116.464 47.769 116.247 47.5338 116.122 47.2491C115.87 46.6662 115.751 46.0353 115.774 45.4016C115.752 44.7632 115.925 44.133 116.272 43.5935C116.452 43.3316 116.699 43.1215 116.988 42.9842ZM118.808 43.8981C118.707 43.79 118.585 43.7031 118.45 43.6426C118.273 43.5717 118.083 43.5382 117.893 43.5443C117.704 43.5395 117.516 43.5799 117.346 43.6623C117.208 43.7277 117.088 43.8255 116.998 43.9472C116.906 44.0835 116.845 44.2377 116.819 44.3993C116.755 44.723 116.725 45.0523 116.729 45.382C116.729 45.7259 116.729 45.9716 116.729 46.1387C116.74 46.3052 116.77 46.47 116.819 46.63C116.857 46.7829 116.932 46.9245 117.037 47.0428C117.152 47.1669 117.295 47.2634 117.453 47.3247C117.612 47.3861 117.783 47.4106 117.953 47.3965C118.142 47.4006 118.329 47.3602 118.5 47.2786C118.635 47.2141 118.754 47.12 118.848 47.0035C118.939 46.8636 119 46.7062 119.027 46.5416C119.09 46.2179 119.12 45.8886 119.116 45.5589C119.116 45.2149 119.116 44.9693 119.116 44.812C119.098 44.6425 119.064 44.4748 119.017 44.3108C118.976 44.1608 118.905 44.0205 118.808 43.8981Z" fill="#458896"/>
<path d="M125.989 43.0719V42.8164V40.7233L126.884 40.625V46.6293L126.964 47.9953L126.238 48.0936L126.128 47.4941C125.955 47.7044 125.737 47.8736 125.489 47.9893C125.241 48.1049 124.97 48.1641 124.696 48.1623C124.444 48.1721 124.193 48.1249 123.962 48.0244C123.731 47.924 123.526 47.7729 123.363 47.5825C122.967 46.9622 122.792 46.229 122.866 45.4992C122.859 45.1277 122.906 44.7571 123.005 44.3986C123.074 44.1169 123.196 43.8503 123.363 43.6124C123.501 43.4199 123.673 43.2535 123.87 43.1211C124.201 42.8876 124.598 42.7637 125.004 42.7673C125.357 42.7595 125.703 42.8665 125.989 43.0719ZM125.054 43.5436C124.898 43.5378 124.743 43.5612 124.597 43.6124C124.45 43.6603 124.318 43.7411 124.209 43.8483C124.037 44.0682 123.911 44.3193 123.837 44.5875C123.764 44.8556 123.745 45.1353 123.781 45.4108C123.733 45.9458 123.825 46.484 124.049 46.9733C124.151 47.108 124.285 47.2149 124.44 47.2837C124.595 47.3525 124.765 47.381 124.935 47.3664C125.152 47.3666 125.367 47.3161 125.561 47.219C125.723 47.1332 125.867 47.0201 125.989 46.8848V43.8188C125.709 43.6474 125.382 43.5683 125.054 43.5928V43.5436Z" fill="#458896"/>
<path d="M128.137 42.5418C127.73 42.5418 127.531 42.3257 127.531 41.8736C127.525 41.7175 127.582 41.5655 127.69 41.4511C127.758 41.3871 127.84 41.3382 127.929 41.3077C128.018 41.2772 128.113 41.2658 128.207 41.2742C128.605 41.2742 128.814 41.5002 128.814 41.9424C128.816 42.0997 128.755 42.2515 128.645 42.365C128.578 42.4282 128.498 42.4766 128.41 42.5071C128.323 42.5376 128.23 42.5494 128.137 42.5418ZM128.625 48.0352H127.73V42.9251L128.625 42.8268V48.0352Z" fill="#458896"/>
<path d="M129.58 42.4036C129.554 42.1461 129.587 41.8861 129.677 41.6429C129.766 41.3997 129.91 41.1795 130.097 40.9984C130.463 40.7081 130.921 40.5549 131.39 40.566C131.764 40.5663 132.136 40.6363 132.484 40.7724L132.305 41.4308C132.06 41.3768 131.81 41.3471 131.559 41.3423C131.415 41.3291 131.27 41.347 131.133 41.3949C130.997 41.4427 130.873 41.5194 130.77 41.6195C130.667 41.7196 130.587 41.8408 130.536 41.9745C130.485 42.1082 130.464 42.2513 130.475 42.3938V42.8754H131.997L131.877 43.6222H130.475V48.0346H129.58V43.5927H128.814L128.913 42.9048L129.58 42.8459V42.4036Z" fill="#458896"/>
<path d="M133.936 42.7577C134.172 42.739 134.41 42.7756 134.629 42.8643C134.849 42.9531 135.044 43.0916 135.199 43.2687C135.464 43.6841 135.609 44.1634 135.617 44.6543C135.617 44.9098 135.617 45.2341 135.617 45.637L135.209 45.696H132.663C132.663 46.5214 132.882 47.0423 133.329 47.2585C133.571 47.3605 133.833 47.4076 134.095 47.396C134.489 47.3746 134.873 47.2672 135.219 47.0816L135.498 47.6909C135.001 48.0048 134.426 48.175 133.837 48.1822C132.414 48.1822 131.708 47.2978 131.708 45.5289C131.673 44.8315 131.869 44.1417 132.265 43.5635C132.456 43.3049 132.708 43.0963 132.999 42.9558C133.291 42.8154 133.612 42.7474 133.936 42.7577ZM134.533 43.8681C134.423 43.6519 134.185 43.5438 133.797 43.5438C133.64 43.5303 133.482 43.5587 133.341 43.6262C133.199 43.6936 133.078 43.7976 132.991 43.9271C132.811 44.2466 132.709 44.6033 132.693 44.9688H134.682C134.713 44.597 134.669 44.223 134.553 43.8681H134.533Z" fill="#458896"/>
<path d="M138.213 42.757C138.342 42.7372 138.472 42.7372 138.601 42.757L138.83 42.8258H138.939L138.78 43.7102C138.548 43.6384 138.306 43.6052 138.064 43.6119C137.921 43.6146 137.781 43.6475 137.652 43.7085C137.523 43.7696 137.409 43.8573 137.318 43.9657C137.21 44.0768 137.126 44.2077 137.07 44.3511C137.013 44.4944 136.986 44.6473 136.99 44.801V47.9555H136.094V44.2114L136.015 42.8454L136.741 42.7472L136.85 43.7299C136.942 43.432 137.118 43.1661 137.358 42.9633C137.606 42.7894 137.912 42.7155 138.213 42.757Z" fill="#458896"/>
<path d="M140.859 42.7577C141.095 42.739 141.332 42.7756 141.552 42.8643C141.771 42.9531 141.967 43.0916 142.122 43.2687C142.387 43.6841 142.531 44.1634 142.54 44.6543C142.54 44.9098 142.54 45.2341 142.54 45.637L142.132 45.696H139.556C139.556 46.5214 139.775 47.0423 140.222 47.2585C140.464 47.3605 140.725 47.4076 140.988 47.396C141.382 47.3746 141.765 47.2672 142.112 47.0816L142.39 47.6909C141.894 48.0048 141.319 48.175 140.729 48.1822C139.307 48.1822 138.601 47.2978 138.601 45.5289C138.566 44.8315 138.762 44.1417 139.158 43.5635C139.352 43.3006 139.609 43.0894 139.905 42.9488C140.202 42.8081 140.53 42.7425 140.859 42.7577ZM141.455 43.8681C141.346 43.6519 141.097 43.5438 140.719 43.5438C140.563 43.5303 140.405 43.5587 140.263 43.6262C140.122 43.6936 140.001 43.7976 139.914 43.9271C139.734 44.2466 139.631 44.6033 139.615 44.9688H141.605C141.629 44.5957 141.578 44.2216 141.455 43.8681Z" fill="#458896"/>
<path d="M145.265 42.7577C145.479 42.7474 145.693 42.7794 145.895 42.852C146.096 42.9246 146.281 43.0361 146.439 43.1802C146.597 43.3593 146.718 43.5682 146.793 43.7945C146.869 44.0208 146.897 44.2597 146.876 44.497V48.0348H145.981V44.5757C145.995 44.4432 145.979 44.3093 145.934 44.1838C145.889 44.0582 145.816 43.9442 145.721 43.85C145.626 43.7558 145.51 43.6839 145.383 43.6394C145.256 43.5949 145.12 43.5791 144.986 43.593C144.59 43.6144 144.217 43.7829 143.942 44.0646V48.0839H143.047V44.3398L142.967 42.9738L143.693 42.8756L143.823 43.4554C143.974 43.2803 144.156 43.1337 144.36 43.023C144.629 42.8499 144.944 42.7577 145.265 42.7577Z" fill="#458896"/>
<path d="M147.901 43.5138C148.078 43.2728 148.312 43.0781 148.582 42.9463C148.852 42.8145 149.151 42.7495 149.452 42.7571C149.689 42.7247 149.929 42.7489 150.154 42.8276C150.379 42.9062 150.582 43.0371 150.745 43.2091C150.989 43.5969 151.104 44.0506 151.073 44.5063L150.178 44.5653C150.201 44.2925 150.142 44.0191 150.009 43.7791C149.921 43.69 149.813 43.6224 149.694 43.5815C149.575 43.5405 149.448 43.5275 149.323 43.5432C148.66 43.5432 148.328 44.1984 148.328 45.5086C148.328 46.7763 148.766 47.4151 149.661 47.4151C150.095 47.4039 150.521 47.2929 150.904 47.0908L151.173 47.6804C150.962 47.846 150.723 47.9725 150.467 48.0538C150.145 48.1546 149.809 48.2044 149.472 48.2013C148.06 48.2013 147.363 47.3168 147.363 45.5381C147.305 44.8227 147.494 44.1088 147.901 43.5138Z" fill="#458896"/>
<path d="M151.899 42.5418C151.491 42.5418 151.292 42.3257 151.292 41.8736C151.286 41.7175 151.344 41.5655 151.451 41.4511C151.52 41.3871 151.601 41.3382 151.691 41.3077C151.78 41.2772 151.875 41.2658 151.968 41.2742C152.366 41.2742 152.575 41.5002 152.575 41.9424C152.577 42.0997 152.516 42.2515 152.406 42.365C152.339 42.4282 152.259 42.4766 152.172 42.5071C152.084 42.5376 151.991 42.5494 151.899 42.5418ZM152.386 48.0352H151.461V42.9251L152.356 42.8268L152.386 48.0352Z" fill="#458896"/>
<path d="M155.529 44.4384C155.529 43.8389 155.251 43.5441 154.704 43.5441C154.219 43.5667 153.74 43.6594 153.282 43.8193L152.963 43.2002C153.534 42.9044 154.169 42.7525 154.813 42.758C155.609 42.758 156.106 42.9938 156.285 43.4655C156.389 43.7826 156.436 44.1151 156.425 44.4482V46.5414C156.412 46.7457 156.441 46.9505 156.511 47.1431C156.582 47.3357 156.691 47.5122 156.832 47.6617L156.305 48.1727C156.168 48.0857 156.044 47.9798 155.937 47.8582C155.827 47.7346 155.743 47.5911 155.689 47.4356C155.518 47.6723 155.29 47.8636 155.027 47.9922C154.763 48.1208 154.471 48.1828 154.177 48.1727C153.182 48.1727 152.754 47.6911 152.754 46.7084C152.754 45.7257 153.371 45.3228 154.604 45.1459L155.599 45.0084L155.529 44.4384ZM153.679 46.7969C153.679 47.1801 153.908 47.3669 154.386 47.3669C154.601 47.374 154.816 47.3337 155.014 47.2487C155.211 47.1637 155.388 47.0362 155.529 46.8755V45.6766C154.994 45.7017 154.469 45.8356 153.988 46.0697C153.883 46.1591 153.801 46.2713 153.747 46.3975C153.694 46.5236 153.67 46.6604 153.679 46.7969Z" fill="#458896"/>
<path d="M158.095 46.4622C158.083 46.7105 158.11 46.9591 158.175 47.1992C158.248 47.4024 158.371 47.5847 158.533 47.7299L157.867 48.2507C157.643 48.0477 157.46 47.8042 157.329 47.5333C157.225 47.2164 157.182 46.8833 157.2 46.5506V40.733L158.095 40.6348V46.4622Z" fill="#458896"/>
<path d="M162.333 43.4258C162.504 43.2139 162.722 43.0435 162.97 42.9277C163.219 42.8118 163.49 42.7536 163.765 42.7575C164.022 42.7459 164.277 42.7951 164.511 42.9011C164.745 43.0071 164.949 43.1668 165.108 43.3668C165.489 43.9965 165.659 44.729 165.595 45.46C165.605 45.9077 165.534 46.3535 165.386 46.7768C165.282 47.0937 165.101 47.3805 164.859 47.6121C164.494 47.955 164.01 48.1482 163.506 48.1526C163.124 48.185 162.744 48.0726 162.442 47.8381V48.0838V49.833L161.547 49.9313V44.2807L161.467 42.9148L162.193 42.8165L162.293 43.416L162.333 43.4258ZM162.442 47.1109C162.743 47.2847 163.088 47.3731 163.437 47.3664C163.607 47.3735 163.776 47.3396 163.931 47.2677C164.085 47.1958 164.219 47.0881 164.322 46.9537C164.579 46.4777 164.689 45.9381 164.64 45.401C164.64 44.4969 164.461 43.9171 164.123 43.6911C163.962 43.5924 163.775 43.5412 163.586 43.5437C163.369 43.5297 163.153 43.567 162.954 43.6525C162.755 43.7379 162.579 43.8691 162.442 44.035V47.1109Z" fill="#458896"/>
<path d="M168.37 44.4384C168.37 43.8389 168.091 43.5441 167.544 43.5441C167.059 43.5667 166.58 43.6594 166.122 43.8193L165.804 43.2002C166.374 42.9044 167.01 42.7525 167.654 42.758C168.45 42.758 168.947 42.9938 169.126 43.4655C169.23 43.7826 169.277 44.1151 169.265 44.4482V46.5414C169.252 46.7457 169.282 46.9505 169.352 47.1431C169.422 47.3357 169.531 47.5122 169.673 47.6617L169.146 48.1727C169.009 48.0857 168.885 47.9798 168.778 47.8582C168.668 47.7346 168.583 47.5911 168.529 47.4356C168.358 47.6723 168.131 47.8636 167.867 47.9922C167.603 48.1208 167.311 48.1828 167.017 48.1727C166.023 48.1727 165.595 47.6911 165.595 46.7084C165.595 45.7257 166.212 45.3228 167.445 45.1459L168.44 45.0084L168.37 44.4384ZM166.52 46.7969C166.52 47.1801 166.759 47.3669 167.226 47.3669C167.442 47.374 167.656 47.3337 167.854 47.2487C168.052 47.1637 168.228 47.0362 168.37 46.8755V45.6766C167.834 45.7017 167.309 45.8356 166.828 46.0697C166.727 46.161 166.648 46.274 166.598 46.4001C166.548 46.5262 166.528 46.6619 166.54 46.7969H166.52Z" fill="#458896"/>
<path d="M172.249 42.757C172.377 42.7372 172.508 42.7372 172.637 42.757L172.866 42.8258H172.975L172.816 43.7102C172.584 43.6384 172.342 43.6052 172.1 43.6119C171.957 43.6146 171.816 43.6475 171.688 43.7085C171.559 43.7696 171.445 43.8573 171.354 43.9657C171.246 44.0768 171.162 44.2077 171.105 44.3511C171.049 44.4944 171.022 44.6473 171.026 44.801V47.9555H170.13V44.2114L170.051 42.8454L170.777 42.7472L170.886 43.7299C170.978 43.432 171.154 43.1661 171.394 42.9633C171.642 42.7894 171.948 42.7155 172.249 42.757Z" fill="#458896"/>
<path d="M175.332 44.4384C175.332 43.8389 175.054 43.5441 174.507 43.5441C174.022 43.5667 173.542 43.6594 173.085 43.8193L172.766 43.2002C173.337 42.9044 173.972 42.7525 174.616 42.758C175.412 42.758 175.909 42.9938 176.088 43.4655C176.192 43.7826 176.239 44.1151 176.228 44.4482V46.5414C176.215 46.7457 176.244 46.9505 176.314 47.1431C176.385 47.3357 176.494 47.5122 176.635 47.6617L176.108 48.1727C175.969 48.0883 175.845 47.9821 175.74 47.8582C175.63 47.7346 175.546 47.5911 175.492 47.4356C175.321 47.6723 175.093 47.8636 174.829 47.9922C174.566 48.1208 174.274 48.1828 173.98 48.1727C172.985 48.1727 172.557 47.6911 172.557 46.7084C172.557 45.7257 173.174 45.3228 174.407 45.1459L175.402 45.0084L175.332 44.4384ZM173.482 46.7969C173.482 47.1801 173.711 47.3669 174.189 47.3669C174.404 47.374 174.619 47.3337 174.817 47.2487C175.014 47.1637 175.191 47.0362 175.332 46.8755V45.6766C174.797 45.7017 174.272 45.8356 173.791 46.0697C173.682 46.1571 173.596 46.2684 173.539 46.3947C173.482 46.521 173.456 46.6588 173.462 46.7969H173.482Z" fill="#458896"/>
<path d="M179.231 44.2419C179.224 44.037 179.265 43.8333 179.349 43.6461C179.434 43.4589 179.56 43.293 179.718 43.1609C180.073 42.8816 180.518 42.7385 180.972 42.758C181.4 42.7325 181.822 42.8656 182.155 43.1314C182.298 43.255 182.415 43.4056 182.499 43.5743C182.583 43.7431 182.632 43.9266 182.643 44.1141L181.718 44.3008C181.717 44.0891 181.636 43.8853 181.489 43.7309C181.329 43.6097 181.133 43.5441 180.932 43.5441C180.73 43.5441 180.535 43.6097 180.375 43.7309C180.317 43.779 180.269 43.8391 180.237 43.907C180.204 43.9748 180.187 44.0488 180.186 44.1239C180.182 44.2561 180.209 44.3872 180.265 44.5072C180.331 44.6165 180.423 44.7078 180.534 44.7725C180.742 44.9116 180.966 45.027 181.2 45.1165C181.411 45.1965 181.617 45.2883 181.817 45.3916C181.976 45.4755 182.129 45.5708 182.275 45.6766C182.435 45.7858 182.564 45.9331 182.651 46.1049C182.738 46.2767 182.78 46.4674 182.772 46.6593C182.771 46.866 182.725 47.07 182.636 47.2569C182.546 47.4437 182.416 47.6088 182.255 47.7403C181.869 48.0523 181.38 48.2101 180.882 48.1825C180.285 48.1699 179.704 47.9855 179.211 47.6519L179.559 47.0033C180.007 47.2234 180.493 47.3568 180.992 47.3964C181.539 47.3964 181.817 47.19 181.817 46.7674C181.816 46.674 181.791 46.5824 181.746 46.5002C181.701 46.4181 181.637 46.348 181.558 46.2957C181.347 46.1428 181.116 46.0173 180.872 45.9223L180.246 45.6373C180.078 45.5492 179.918 45.4473 179.768 45.3327C179.592 45.211 179.45 45.047 179.356 44.8561C179.262 44.6652 179.219 44.4538 179.231 44.2419Z" fill="#458896"/>
<path d="M185.03 42.7575C185.266 42.7372 185.504 42.773 185.724 42.8619C185.944 42.9507 186.139 43.0901 186.293 43.2685C186.566 43.68 186.712 44.1618 186.711 44.6541C186.711 44.9096 186.711 45.2339 186.711 45.6368L186.303 45.6958H183.737C183.737 46.5212 183.956 47.0421 184.403 47.2583C184.645 47.3603 184.907 47.4073 185.169 47.3958C185.56 47.3756 185.941 47.2681 186.283 47.0814L186.562 47.6906C186.066 48.006 185.49 48.1764 184.901 48.182C183.488 48.182 182.782 47.2976 182.782 45.5287C182.747 44.8312 182.943 44.1415 183.339 43.5633C183.532 43.3018 183.787 43.0915 184.082 42.9509C184.377 42.8103 184.703 42.7439 185.03 42.7575ZM185.627 43.8679C185.527 43.6517 185.279 43.5436 184.901 43.5436C184.744 43.5279 184.585 43.5553 184.443 43.623C184.301 43.6906 184.18 43.7958 184.095 43.9269C183.911 44.2454 183.805 44.6022 183.787 44.9685H185.776C185.807 44.5953 185.756 44.2199 185.627 43.8679Z" fill="#458896"/>
<path d="M188.69 48.1526C188.278 48.1657 187.878 48.0173 187.576 47.7399C187.419 47.5677 187.299 47.3655 187.224 47.1458C187.148 46.9261 187.119 46.6935 187.139 46.4624V42.9148L188.034 42.8264V46.3543C188.034 47.0323 188.362 47.337 189.028 47.337C189.235 47.3408 189.44 47.3017 189.63 47.2221C189.82 47.1425 189.991 47.0243 190.132 46.8751V42.8853L191.027 42.7969V46.5901L191.107 47.9561L190.381 48.0543L190.252 47.5237C190.061 47.7439 189.82 47.9159 189.548 48.0253C189.276 48.1347 188.982 48.1783 188.69 48.1526Z" fill="#458896"/>
<path d="M196.677 42.7574C196.891 42.7454 197.106 42.7767 197.308 42.8493C197.51 42.922 197.694 43.0345 197.851 43.18C198.012 43.3578 198.133 43.5665 198.209 43.7932C198.284 44.0198 198.311 44.2593 198.288 44.4968V48.0345H197.393V44.5754C197.407 44.4429 197.391 44.309 197.346 44.1835C197.301 44.0579 197.228 43.9439 197.133 43.8497C197.038 43.7555 196.922 43.6836 196.795 43.6391C196.668 43.5947 196.533 43.5788 196.398 43.5927C196.194 43.5949 195.993 43.6454 195.812 43.7401C195.639 43.8179 195.484 43.928 195.354 44.0644V48.0837H194.459V44.3395L194.379 42.9736L195.105 42.8753L195.235 43.4551C195.39 43.2801 195.575 43.1337 195.782 43.0227C196.048 42.8509 196.359 42.7588 196.677 42.7574Z" fill="#458896"/>
<path d="M200.964 42.7575C201.2 42.7372 201.438 42.773 201.658 42.8619C201.878 42.9507 202.073 43.0901 202.227 43.2685C202.5 43.68 202.646 44.1618 202.645 44.6541C202.645 44.9096 202.645 45.2339 202.645 45.6368L202.237 45.6958H199.661C199.661 46.5212 199.89 47.0421 200.327 47.2583C200.569 47.3581 200.831 47.4051 201.093 47.3958C201.487 47.3771 201.871 47.2695 202.217 47.0814L202.495 47.6906C202 48.006 201.424 48.1764 200.834 48.182C199.422 48.182 198.706 47.2976 198.706 45.5287C198.674 44.8301 198.873 44.1403 199.273 43.5633C199.461 43.2972 199.716 43.0833 200.012 42.9422C200.308 42.8011 200.636 42.7375 200.964 42.7575ZM201.56 43.8679C201.461 43.6517 201.212 43.5436 200.834 43.5436C200.676 43.5282 200.516 43.5558 200.373 43.6233C200.229 43.6908 200.107 43.7958 200.019 43.9269C199.839 44.2464 199.736 44.6031 199.72 44.9685H201.71C201.739 44.5954 201.689 44.2202 201.56 43.8679Z" fill="#458896"/>
<path d="M204.753 42.7571H205.032H205.609L207.12 42.8161L207.011 43.386L206.325 43.4548C206.498 43.7535 206.584 44.0936 206.573 44.4375C206.588 44.6838 206.549 44.9303 206.46 45.1608C206.371 45.3912 206.233 45.6002 206.056 45.774C205.65 46.1233 205.121 46.3 204.584 46.2654H204.196C204.105 46.3349 204.019 46.4104 203.938 46.4914C203.9 46.5352 203.879 46.5909 203.878 46.6486C203.878 46.8353 204.087 46.9533 204.505 46.9926L205.251 47.0614C205.689 47.0656 206.12 47.177 206.504 47.3857C206.652 47.4817 206.772 47.6152 206.851 47.7725C206.93 47.9297 206.964 48.105 206.951 48.2799C206.96 48.4597 206.931 48.6393 206.868 48.8081C206.805 48.9769 206.708 49.1314 206.583 49.2626C206.311 49.5132 205.99 49.7054 205.639 49.8271C205.288 49.9489 204.915 49.9976 204.544 49.9702C203.192 49.9702 202.505 49.5673 202.505 48.7516C202.532 48.554 202.6 48.3641 202.707 48.1947C202.813 48.0253 202.955 47.8801 203.122 47.7689C203.155 47.7377 203.191 47.7112 203.231 47.6903L203.321 47.6215L203.391 47.5724C203.271 47.5113 203.171 47.4181 203.102 47.3033C203.033 47.1886 202.999 47.057 203.003 46.9238C203.018 46.7801 203.081 46.6454 203.182 46.5405C203.324 46.3946 203.481 46.2629 203.649 46.1475C203.37 46.0112 203.14 45.7945 202.989 45.5259C202.838 45.2573 202.774 44.9497 202.804 44.6439C202.791 44.3949 202.831 44.146 202.92 43.9127C203.009 43.6794 203.145 43.4667 203.321 43.2878C203.512 43.1103 203.738 42.9721 203.983 42.881C204.229 42.7899 204.491 42.7478 204.753 42.7571ZM203.759 49.125C204.056 49.2545 204.379 49.315 204.703 49.3019C205.044 49.3103 205.382 49.2501 205.698 49.125C205.817 49.0858 205.92 49.0106 205.994 48.9101C206.067 48.8095 206.106 48.6887 206.106 48.5649C206.116 48.4842 206.103 48.4023 206.07 48.328C206.037 48.2536 205.984 48.1895 205.917 48.1423C205.86 48.1014 205.801 48.0652 205.738 48.0342C205.646 47.9938 205.549 47.9673 205.449 47.9556L204.703 47.877C204.459 47.8619 204.217 47.8291 203.977 47.7787C203.791 47.9096 203.626 48.0688 203.49 48.2504C203.425 48.3466 203.391 48.4593 203.391 48.5747C203.387 48.6914 203.42 48.8064 203.484 48.9045C203.547 49.0027 203.64 49.0796 203.749 49.125H203.759ZM204.624 43.4548C204.492 43.4411 204.358 43.458 204.234 43.504C204.11 43.5501 203.998 43.6241 203.908 43.7202C203.743 43.9594 203.666 44.2472 203.689 44.5358C203.689 45.263 204.037 45.6266 204.733 45.6266C204.868 45.6424 205.004 45.6255 205.131 45.5776C205.257 45.5297 205.37 45.452 205.459 45.3514C205.616 45.1017 205.689 44.8094 205.668 44.5162C205.692 44.3733 205.681 44.227 205.636 44.0892C205.592 43.9513 205.515 43.8257 205.412 43.7224C205.31 43.6191 205.184 43.5411 205.045 43.4946C204.907 43.4482 204.759 43.4345 204.614 43.4548H204.624Z" fill="#458896"/>
<path d="M210.005 47.9264C209.665 48.0813 209.295 48.1586 208.921 48.1524C208.574 48.1569 208.232 48.0758 207.926 47.9165C207.648 47.7687 207.427 47.5336 207.299 47.2483C207.052 46.6639 206.933 46.0341 206.951 45.4008C206.934 44.7629 207.107 44.1341 207.449 43.5926C207.635 43.3328 207.885 43.1233 208.175 42.9834C208.514 42.8274 208.885 42.7501 209.259 42.7573C209.622 42.7467 209.981 42.8279 210.303 42.9932C210.575 43.1408 210.792 43.3719 210.92 43.6516C211.171 44.2384 211.29 44.8722 211.268 45.5089C211.292 46.1445 211.118 46.772 210.771 47.3073C210.583 47.5841 210.316 47.7996 210.005 47.9264ZM208.185 47.0125C208.283 47.1231 208.405 47.2104 208.543 47.268C208.719 47.3389 208.909 47.3723 209.1 47.3662C209.289 47.3711 209.477 47.3306 209.647 47.2483C209.784 47.1863 209.903 47.0918 209.995 46.9732C210.072 46.8399 210.123 46.6931 210.144 46.5408C210.208 46.2171 210.238 45.8878 210.233 45.5581C210.246 45.3093 210.246 45.06 210.233 44.8112C210.223 44.6413 210.193 44.4732 210.144 44.31C210.104 44.1578 210.029 44.0166 209.925 43.8973C209.81 43.7731 209.668 43.6767 209.509 43.6153C209.351 43.554 209.18 43.5294 209.01 43.5435C208.821 43.5394 208.633 43.5798 208.463 43.6614C208.326 43.7288 208.207 43.8263 208.115 43.9464C208.023 44.0827 207.962 44.2368 207.936 44.3985C207.872 44.7222 207.842 45.0514 207.846 45.3812C207.846 45.7251 207.846 45.9708 207.846 46.1378C207.866 46.304 207.899 46.4683 207.946 46.6292C207.988 46.7696 208.06 46.9 208.155 47.0125H208.185ZM210.044 40.6445L210.572 41.3226L208.712 42.4724L208.294 41.981L210.044 40.6445Z" fill="#458896"/>
<path d="M211.954 43.5138C212.132 43.2728 212.365 43.0781 212.636 42.9463C212.906 42.8145 213.205 42.7495 213.506 42.7571C213.742 42.7247 213.983 42.7489 214.208 42.8276C214.433 42.9062 214.636 43.0371 214.799 43.2091C215.035 43.5998 215.146 44.052 215.117 44.5063L214.222 44.5653C214.25 44.2922 214.191 44.0173 214.053 43.7791C213.966 43.6881 213.859 43.6191 213.739 43.5781C213.62 43.537 213.492 43.5251 213.367 43.5432C212.704 43.5432 212.356 44.1984 212.322 45.5086C212.322 46.7763 212.77 47.4151 213.655 47.4151C214.09 47.405 214.516 47.2939 214.898 47.0908L215.167 47.6804C214.96 47.8509 214.719 47.978 214.461 48.0538C214.14 48.1561 213.804 48.2059 213.466 48.2013C212.064 48.2013 211.358 47.3168 211.358 45.5381C211.316 44.8158 211.527 44.1013 211.954 43.5138Z" fill="#458896"/>
<path d="M215.943 42.5414C215.545 42.5414 215.336 42.3252 215.336 41.8732C215.334 41.7158 215.395 41.5641 215.505 41.4506C215.572 41.3874 215.652 41.339 215.74 41.3085C215.827 41.278 215.92 41.2661 216.012 41.2737C216.42 41.2737 216.619 41.4997 216.619 41.942C216.625 42.0981 216.568 42.25 216.46 42.3645C216.391 42.4285 216.31 42.4773 216.221 42.5078C216.131 42.5383 216.037 42.5498 215.943 42.5414ZM216.43 48.0347H215.535V42.9247L216.43 42.8264V48.0347Z" fill="#458896"/>
<path d="M218.151 42.9838C218.49 42.8279 218.861 42.7506 219.235 42.7578C219.598 42.7471 219.957 42.8283 220.279 42.9936C220.552 43.1412 220.768 43.3723 220.896 43.652C221.147 44.2388 221.266 44.8726 221.244 45.5094C221.268 46.1449 221.094 46.7725 220.747 47.3077C220.572 47.5772 220.324 47.792 220.031 47.9268C219.691 48.0818 219.32 48.159 218.946 48.1528C218.583 48.1657 218.223 48.0844 217.902 47.917C217.624 47.7692 217.403 47.5341 217.275 47.2487C217.028 46.6643 216.909 46.0345 216.927 45.4013C216.91 44.7634 217.083 44.1346 217.425 43.5931C217.611 43.3332 217.861 43.1238 218.151 42.9838ZM219.971 43.8977C219.868 43.7874 219.743 43.7002 219.603 43.6422C219.43 43.5712 219.243 43.5377 219.056 43.5439C218.863 43.539 218.672 43.5795 218.499 43.6619C218.362 43.7292 218.243 43.8267 218.151 43.9469C218.059 44.0831 217.998 44.2373 217.972 44.3989C217.908 44.7226 217.878 45.0519 217.882 45.3816C217.882 45.7256 217.882 45.9712 217.882 46.1383C217.902 46.3044 217.935 46.4688 217.982 46.6296C218.02 46.7805 218.092 46.9212 218.19 47.0424C218.306 47.1659 218.448 47.262 218.607 47.3233C218.765 47.3846 218.936 47.4095 219.106 47.3961C219.295 47.4022 219.483 47.3617 219.653 47.2782C219.79 47.2163 219.909 47.1217 220.001 47.0031C220.092 46.8632 220.153 46.7058 220.18 46.5412C220.243 46.2175 220.273 45.8882 220.269 45.5585C220.282 45.3097 220.282 45.0604 220.269 44.8116C220.259 44.6418 220.229 44.4736 220.18 44.3104C220.139 44.1604 220.068 44.0201 219.971 43.8977Z" fill="#458896"/>
<path d="M215.237 37.0285L213.775 30.356H203.649C203.043 31.4075 202.386 32.5277 201.66 33.7168C200.934 34.9059 200.277 36.0065 199.671 37.0285H192.997L210.254 8.40234H215.396L221.98 37.0285H215.237ZM211.507 16.5686L206.484 25.58H213.058L211.507 16.5686Z" fill="#127083"/>
<path d="M91.8634 27.8698C90.9948 30.6886 89.2256 33.1537 86.8207 34.8962C84.0533 36.723 80.766 37.6254 77.4414 37.4709C75.3088 37.5648 73.1852 37.1431 71.2548 36.2425C69.7852 35.5161 68.5617 34.3824 67.7339 32.9799C66.918 31.535 66.4676 29.9168 66.421 28.2629C66.3498 26.3738 66.5101 24.4831 66.8984 22.632C67.2714 20.735 67.8414 18.881 68.5992 17.0994C69.3352 15.3563 70.383 13.7584 71.6925 12.3824C73.0519 10.9732 74.6906 9.8559 76.5065 9.10015C78.6986 8.2303 81.0476 7.81229 83.4091 7.87177C87.1091 7.87177 89.8311 8.7038 91.575 10.3679C92.453 11.2417 93.1317 12.2909 93.5657 13.4451C93.9997 14.5993 94.1789 15.8318 94.0914 17.0601H87.5965C87.452 15.9688 86.9112 14.9665 86.0747 14.2397C85.0577 13.4441 83.7787 13.0486 82.4841 13.1293H82.0067C80.7935 13.0949 79.5906 13.3582 78.5056 13.8958C77.5445 14.4069 76.6986 15.1056 76.0191 15.9496C75.3082 16.8391 74.7442 17.8341 74.3481 18.8977C73.9245 20.0364 73.5919 21.2061 73.3535 22.3962C73.12 23.5229 72.9803 24.6667 72.9358 25.816C72.8731 26.839 73.0151 27.8641 73.3535 28.8329C73.6546 29.7046 74.2295 30.4586 74.9946 30.985C75.9671 31.5831 77.1036 31.8681 78.247 31.8006H78.9333C80.2878 31.845 81.6173 31.4326 82.703 30.6312C83.6812 29.8976 84.4772 28.9532 85.0304 27.8698H91.8634Z" fill="#127083"/>
<path d="M119.852 14.6228H104.853L103.719 20.2045H117.754L116.57 25.7961H102.516L101.133 32.3114H116.54L115.366 36.9596H93.0471L99.1641 8.10742H121.046L119.852 14.6228Z" fill="#127083"/>
<path d="M111.109 0L106.614 5.59159L113.298 5.57193L118.937 0.0294811L111.109 0Z" fill="#8BB7C2"/>
<path d="M123.801 7.95996H130.335L125.691 31.3188H139.078L137.964 36.9203H118.072L123.801 7.95996Z" fill="#127083"/>
<path d="M162.81 7.90137L161.756 13.6011H152.635L148.249 37.3629H142.082L146.488 13.6011H137.338L138.392 7.90137H162.81Z" fill="#127083"/>
<path d="M170.26 7.98926L164.819 37.2542H158.593L164.033 7.98926H170.26Z" fill="#127083"/>
<path d="M195.622 27.8689C194.699 30.7297 192.859 33.2164 190.381 34.9542C187.894 36.6837 184.648 37.5485 180.643 37.5485C178.433 37.642 176.231 37.2177 174.218 36.3103C172.7 35.5875 171.428 34.4436 170.558 33.0182C169.716 31.5714 169.251 29.9403 169.205 28.2718C169.123 26.3657 169.287 24.457 169.693 22.5918C170.085 20.6818 170.678 18.8176 171.463 17.0296C172.231 15.2663 173.316 13.6549 174.666 12.2734C176.081 10.8497 177.772 9.72327 179.639 8.96164C181.921 8.09035 184.354 7.6729 186.8 7.73326C190.653 7.73326 193.481 8.56856 195.284 10.2392C196.19 11.1071 196.894 12.16 197.346 13.3243C197.798 14.4887 197.987 15.7365 197.9 16.9805H190.351C190.062 16.1497 189.613 15.3822 189.028 14.7203C188.282 14.0913 185.885 14.2584 185.885 14.2584H185.278C184.125 14.2242 182.981 14.4706 181.946 14.9758C181.037 15.4407 180.231 16.0825 179.579 16.8626C178.909 17.681 178.375 18.5999 177.998 19.5847C177.575 20.633 177.242 21.7145 177.003 22.8178C176.781 23.8596 176.648 24.9181 176.605 25.9821C176.548 26.9261 176.683 27.8719 177.003 28.7631C177.298 29.5659 177.846 30.2545 178.565 30.7285C179.494 31.2847 180.573 31.5486 181.658 31.4852H182.294C183.579 31.5267 184.842 31.1466 185.885 30.4042C186.808 29.7291 187.563 28.8553 188.093 27.8492L195.622 27.8689Z" fill="#127083"/>
<path d="M98.9651 9.05076L99.164 8.11719H121.026L119.862 14.6325L115.356 14.6227L98.9651 9.05076Z" fill="#8BB7C2"/>
<path d="M121.871 17.6691L127.968 19.8703L130.346 7.95996H123.811L121.871 17.6691Z" fill="#8BB7C2"/>
<path d="M148.647 28.0665L150.069 27.5358L152.645 13.6109H161.756L162.81 7.90137H138.402L137.348 13.6109H146.468L144.121 26.3074L148.647 28.0665Z" fill="#8BB7C2"/>
<path d="M161.199 23.2604L167.883 20.7152L170.26 7.99902H164.033L161.199 23.2604Z" fill="#8BB7C2"/>
<path d="M170.807 18.7108L195.225 10.181C192.708 7.41955 175.213 3.30201 170.807 18.7108Z" fill="#8BB7C2"/>
</svg>
