<svg width="722" height="606" viewBox="0 0 722 606" fill="none" xmlns="http://www.w3.org/2000/svg">
<path d="M99.5896 123.671C99.5896 57.7139 241.339 26.7391 302.14 66.6521C362.941 106.565 469.825 -7.16029 634.161 17.185C798.498 41.5303 645.662 445.774 538.08 547.73C430.498 649.685 285.075 487.005 171.457 487.005C57.838 487.005 6.48633 418.586 63.6056 303.037C120.725 187.487 99.5896 189.629 99.5896 123.671Z" fill="#3DB84A" fill-opacity="0.3"/>
<path d="M620.358 392.237C620.358 352.809 613.744 313.768 600.895 277.341C588.046 240.915 569.213 207.817 545.471 179.937C521.729 152.058 493.543 129.943 462.523 114.854C431.503 99.7659 398.255 92 364.679 92C331.103 92 297.855 99.7659 266.835 114.854C235.814 129.943 207.629 152.058 183.887 179.937C160.145 207.817 141.311 240.915 128.462 277.341C115.613 313.768 109 352.809 109 392.237L620.358 392.237Z" fill="#7000FF" fill-opacity="0.3"/>
<ellipse cx="383.829" cy="422.665" rx="82.7508" ry="26.5227" fill="black" fill-opacity="0.3"/>
<path d="M567.392 2.40657C646.57 -2.90745 723.378 0.47449 720.059 130.431" stroke="#3DB84A" stroke-opacity="0.3" stroke-width="2" stroke-linecap="round"/>
<path d="M348.845 571.61C434.263 612.344 527.316 636.59 586.488 513.419" stroke="#3DB84A" stroke-opacity="0.3" stroke-width="2" stroke-linecap="round"/>
<path d="M86.3706 171.807C90.9798 200.942 85.4488 229.592 62.4028 269.41" stroke="#3DB84A" stroke-opacity="0.3" stroke-width="2" stroke-linecap="round"/>
<path d="M229.631 113.994L150.809 109.028C134.549 108.004 120.537 120.355 119.512 136.615L118.215 157.203C117.191 173.463 129.542 187.475 145.802 188.5L254.066 195.321L257.218 145.291C258.243 129.031 245.892 115.019 229.631 113.994Z" stroke="white"/>
<ellipse cx="371.101" cy="423.143" rx="82.7508" ry="26.5227" fill="#476B72"/>
<path d="M413.538 400.333L389.137 421.021C383.302 415.54 361.845 397.065 371.632 396.62C383.302 396.09 408.233 398.742 413.538 400.333Z" fill="#34555A"/>
<ellipse cx="369.511" cy="414.125" rx="23.8704" ry="12.2004" fill="#3E646A"/>
<rect x="345.64" y="367.976" width="47.7409" height="45.6191" fill="#3E646A"/>
<path d="M393.381 384.95L345.64 382.298V375.932L393.381 377.524V384.95Z" fill="#34555A"/>
<path d="M470.298 231.225L491.753 266.581L485.488 353.794L460.748 384.208L470.298 231.225Z" fill="#34555A"/>
<path d="M263.419 303.579L219.391 359.276L176.425 304.735L140.884 314.188" stroke="#383838" stroke-width="15" stroke-linecap="round"/>
<path d="M252.5 329.5L253.5 304L259 297L257.5 323.5L252.5 329.5Z" fill="#272727"/>
<path d="M477.722 309.095L522.48 365.067L576.054 323.692L612.656 336.953" stroke="#383838" stroke-width="15" stroke-linecap="round"/>
<path d="M486.5 308L482 326.5L475 318.5L480.5 300.5L486.5 308Z" fill="#272727"/>
<path d="M261.993 217.433L483.558 228.785L472.978 386.117L251.442 373.386L261.993 217.433Z" fill="#476B72"/>
<path d="M486.21 235.15L483.557 228.785L472.978 386.117L477.192 381.555L486.21 235.15Z" fill="#3E646A"/>
<path d="M270.602 225.887L473.588 236.639L464.672 369.629L261.68 357.978L270.602 225.887Z" fill="#EBDCDC"/>
<path d="M386.045 348.383L337.172 345.772C337.172 345.772 343.891 320.858 364.968 322.685C386.045 324.512 386.045 348.383 386.045 348.383Z" fill="#383838"/>
<path d="M385.424 348.349L355.719 346.757C355.719 346.757 358.383 334.713 371.114 335.243C383.845 335.774 385.424 348.349 385.424 348.349Z" fill="#B14545"/>
<path d="M371.114 335.243C383.845 335.774 385.424 348.349 385.424 348.349C385.424 348.349 382.772 339.861 371.102 339.331C359.432 338.8 355.719 346.757 355.719 346.757C355.719 346.757 358.383 334.713 371.114 335.243Z" fill="#783F3F"/>
<path d="M322.3 240.985C318.48 258.808 303.026 263.971 295.777 264.325L309.038 252.655L322.3 240.985Z" fill="#383838"/>
<path d="M415.785 246.29C418.693 264.284 433.865 270.226 441.087 270.948L428.436 258.619L415.785 246.29Z" fill="#383838"/>
<path d="M297.9 289.256C299.405 274.968 312.137 260.603 326.013 264.325C338.452 267.661 341.206 281.92 338.744 294.561C336.097 308.153 324.899 319.407 311.691 315.249C300.38 311.687 296.657 301.05 297.9 289.256Z" fill="url(#paint0_radial_706_236)"/>
<path d="M310.662 290.367C311.386 283.424 317.512 276.444 324.189 278.252C330.174 279.874 331.499 286.802 330.314 292.945C329.041 299.55 323.652 305.019 317.297 302.998C311.855 301.268 310.064 296.098 310.662 290.367Z" fill="#405B41"/>
<path d="M310.662 290.367C311.386 283.424 315.823 281.191 322.5 283C328.485 284.621 331.499 286.802 330.314 292.945C329.041 299.55 323.652 305.019 317.297 302.998C311.855 301.268 310.064 296.098 310.662 290.367Z" fill="#629F64"/>
<path d="M313.81 290.449C314.305 285.242 318.497 280.006 323.065 281.363C327.16 282.579 328.067 287.775 327.256 292.382C326.385 297.336 322.698 301.438 318.35 299.922C314.626 298.624 313.401 294.747 313.81 290.449Z" fill="#383838"/>
<path d="M322.752 281.741C322.75 284.321 319.323 286.41 315.098 286.407C310.873 286.403 307.449 284.309 307.451 281.728C307.453 279.148 310.88 277.059 315.106 277.062C319.331 277.066 322.755 279.16 322.752 281.741Z" fill="white"/>
<path d="M427.665 295.527C426.16 281.239 413.428 266.874 399.551 270.596C387.112 273.932 384.358 288.191 386.82 300.832C389.467 314.423 400.666 325.678 413.873 321.52C425.185 317.958 428.907 307.32 427.665 295.527Z" fill="url(#paint1_radial_706_236)"/>
<path d="M414.903 296.638C414.179 289.695 408.053 282.714 401.376 284.523C395.391 286.144 394.066 293.073 395.25 299.216C396.524 305.821 401.912 311.29 408.267 309.269C413.71 307.539 415.501 302.369 414.903 296.638Z" fill="#405B41"/>
<path d="M414.903 296.638C414.179 289.695 409.741 287.462 403.064 289.271C397.079 290.892 394.066 293.073 395.25 299.216C396.524 305.821 401.912 311.29 408.267 309.269C413.71 307.539 415.501 302.369 414.903 296.638Z" fill="#629F64"/>
<path d="M411.755 296.72C411.259 291.512 407.068 286.277 402.499 287.633C398.404 288.849 397.498 294.046 398.308 298.653C399.18 303.607 402.867 307.709 407.215 306.193C410.938 304.895 412.164 301.018 411.755 296.72Z" fill="#383838"/>
<path d="M390.004 287.685C390.006 290.265 393.433 292.354 397.658 292.351C401.884 292.347 405.307 290.253 405.305 287.672C405.303 285.092 401.876 283.003 397.651 283.006C393.425 283.01 390.002 285.105 390.004 287.685Z" fill="white"/>
<path d="M111.709 361.132C114.715 368.735 118.181 386.912 107.996 398.794" stroke="black" stroke-opacity="0.5" stroke-width="2" stroke-linecap="round"/>
<path d="M392.682 91.7353L562.52 100.599C578.79 101.448 591.292 115.326 590.443 131.596L588.698 165.016C587.849 181.287 573.971 193.788 557.701 192.939L358.403 182.538L361.685 119.658C362.534 103.388 376.412 90.8862 392.682 91.7353Z" stroke="white"/>
<path d="M332.431 134.13C333.294 117.584 347.407 104.871 363.953 105.734L533.791 114.598C550.337 115.461 563.05 129.574 562.187 146.121L560.443 179.541C559.579 196.087 545.466 208.8 528.92 207.936L329.123 197.509L332.431 134.13Z" fill="#3E646A"/>
<path d="M458.001 195.133C456.345 193.295 456.493 190.463 458.331 188.807L479.963 169.321C481.801 167.666 484.633 167.814 486.289 169.652C487.944 171.49 487.796 174.322 485.958 175.977L464.327 195.463C462.489 197.119 459.657 196.971 458.001 195.133Z" fill="#385A60"/>
<path d="M484.885 196.536C483.048 198.192 480.215 198.044 478.56 196.206L459.074 174.574C457.418 172.736 457.566 169.904 459.404 168.249C461.242 166.593 464.074 166.741 465.73 168.579L485.216 190.21C486.871 192.048 486.723 194.88 484.885 196.536Z" fill="#385A60"/>
<path d="M416.775 163.786L415.932 179.93C415.932 179.93 415.616 185.985 444.542 187.494C473.468 189.004 473.784 182.95 473.784 182.95L474.627 166.805" stroke="#385A60" stroke-width="6"/>
<path d="M417.617 147.641L416.774 163.786C416.774 163.786 416.458 169.84 445.384 171.35C474.31 172.859 474.626 166.805 474.626 166.805L475.469 150.66" stroke="#385A60" stroke-width="6"/>
<path d="M417.617 147.641L418.459 131.496C418.459 131.496 418.775 125.442 447.701 126.951C476.628 128.461 476.312 134.515 476.312 134.515L475.469 150.66C475.469 150.66 475.153 156.714 446.227 155.205C417.301 153.695 417.617 147.641 417.617 147.641Z" stroke="#385A60" stroke-width="6"/>
<path d="M447.07 139.06C475.996 140.569 476.328 134.197 476.328 134.197C476.328 134.197 476.628 128.461 447.701 126.951C418.775 125.442 418.476 131.177 418.476 131.177C418.476 131.177 418.143 137.55 447.07 139.06Z" stroke="#385A60" stroke-width="6"/>
<path d="M414.295 159.609L413.452 175.754C413.452 175.754 413.136 181.808 442.062 183.317C470.989 184.827 471.304 178.773 471.304 178.773L472.147 162.628" stroke="white" stroke-width="6"/>
<path d="M415.137 143.464L414.294 159.609C414.294 159.609 413.978 165.663 442.904 167.173C471.83 168.682 472.146 162.628 472.146 162.628L472.989 146.483" stroke="white" stroke-width="6"/>
<path d="M415.137 143.464L415.98 127.319C415.98 127.319 416.296 121.265 445.222 122.775C474.148 124.284 473.832 130.339 473.832 130.339L472.989 146.483C472.989 146.483 472.674 152.538 443.747 151.028C414.821 149.518 415.137 143.464 415.137 143.464Z" stroke="white" stroke-width="6"/>
<path d="M444.59 134.883C473.516 136.393 473.849 130.02 473.849 130.02C473.849 130.02 474.148 124.284 445.222 122.775C416.296 121.265 415.997 127.001 415.997 127.001C415.997 127.001 415.664 133.374 444.59 134.883Z" stroke="white" stroke-width="6"/>
<path d="M456.997 194.018C455.341 192.18 455.489 189.348 457.327 187.693L478.959 168.207C480.797 166.551 483.629 166.699 485.285 168.537C486.94 170.375 486.792 173.207 484.955 174.863L463.323 194.348C461.485 196.004 458.653 195.856 456.997 194.018Z" fill="#B14545"/>
<path d="M483.882 195.421C482.044 197.077 479.211 196.929 477.556 195.091L458.07 173.46C456.414 171.622 456.562 168.789 458.4 167.134C460.238 165.478 463.07 165.626 464.726 167.464L484.212 189.096C485.867 190.934 485.72 193.766 483.882 195.421Z" fill="#B14545"/>
<path d="M275.393 159.507C276.434 142.972 263.874 128.722 247.338 127.68L168.515 122.714C151.98 121.673 137.73 134.233 136.689 150.769L135.391 171.357C134.35 187.893 146.91 202.142 163.446 203.184L272.209 210.036L275.393 159.507Z" fill="#3E646A"/>
<g filter="url(#filter0_d_706_236)">
<circle cx="205.449" cy="189.885" r="4.24363" transform="rotate(3.60496 205.449 189.885)" fill="white"/>
<mask id="mask0_706_236" style="mask-type:alpha" maskUnits="userSpaceOnUse" x="180" y="135" width="52" height="50">
<rect x="183.373" y="135.343" width="47.7409" height="46.68" transform="rotate(3.60496 183.373 135.343)" fill="#C4C4C4"/>
</mask>
<g mask="url(#mask0_706_236)">
<path d="M189.911 154.806C189.775 153.541 189.749 152.258 189.83 150.959C189.966 149.662 190.314 148.403 190.876 147.182C191.569 145.583 192.626 144.199 194.045 143.032C195.465 141.865 197.056 140.974 198.818 140.36C200.69 139.705 202.573 139.292 204.469 139.121C206.421 138.906 208.303 138.952 210.114 139.26C211.979 139.57 213.749 140.117 215.422 140.899C217.153 141.636 218.758 142.656 220.237 143.957C221.818 145.362 222.956 146.956 223.652 148.74C224.404 150.479 224.749 152.264 224.687 154.097C224.679 155.933 224.323 157.747 223.617 159.54C222.969 161.287 222.033 162.895 220.809 164.365C220.809 164.365 220.78 164.411 220.72 164.504C219.738 165.554 218.629 166.499 217.391 167.339C216.157 168.132 214.998 169.001 213.915 169.948C212.666 170.981 211.897 172.068 211.61 173.21C211.325 174.304 211.032 175.542 210.73 176.924C210.484 178.262 210.007 179.416 209.3 180.387C208.649 181.312 207.494 181.699 205.834 181.546C204.711 181.427 203.873 181.06 203.319 180.445C202.822 179.785 202.466 179.038 202.249 178.203C202.089 177.322 202.065 176.427 202.176 175.516C202.29 174.556 202.424 173.719 202.576 173.003C203.004 171.339 203.694 169.787 204.647 168.349C205.602 166.863 206.739 165.484 208.057 164.214C208.8 163.536 209.538 162.93 210.272 162.396C211.008 161.814 211.693 161.205 212.325 160.568C212.958 159.931 213.513 159.241 213.991 158.498C214.468 157.755 214.819 156.883 215.044 155.882C215.262 154.978 215.24 154.058 214.975 153.123C214.714 152.14 214.285 151.267 213.686 150.504C213.091 149.693 212.353 149.019 211.472 148.48C210.593 147.893 209.619 147.541 208.55 147.426C207.587 147.317 206.56 147.373 205.47 147.594C204.382 147.767 203.364 148.114 202.416 148.634C201.47 149.106 200.679 149.709 200.04 150.442C199.455 151.178 199.159 152.03 199.152 152.996C199.169 153.577 199.239 154.186 199.36 154.821C199.538 155.413 199.636 155.999 199.653 156.58C199.727 157.116 199.667 157.644 199.473 158.163C199.332 158.686 198.952 159.17 198.331 159.614C197.314 160.372 196.323 160.72 195.358 160.659C194.395 160.55 193.529 160.206 192.758 159.625C191.986 159.045 191.332 158.327 190.793 157.472C190.311 156.571 190.017 155.683 189.911 154.806ZM210.811 192.299C210.723 193.695 210.054 194.909 208.804 195.942C207.611 196.93 206.264 197.377 204.762 197.283C203.314 197.191 202.06 196.581 201.001 195.451C199.947 194.224 199.463 192.937 199.548 191.589C199.642 190.097 200.284 188.881 201.474 187.941C202.67 186.905 203.992 186.432 205.44 186.523C206.942 186.618 208.221 187.254 209.278 188.432C210.391 189.566 210.902 190.855 210.811 192.299Z" fill="white"/>
</g>
</g>
<path d="M629.96 395.608C629.96 395.608 649.588 372.271 646.405 365.906C642.691 358.48 633.143 371.211 622.003 374.393C607.631 378.5 628.067 361.215 608.742 365.906C587.116 371.156 553.36 404.914 531.296 407.812C516.189 409.796 445.314 383.52 430.509 387.124C422.046 389.184 422.022 396.142 422.022 396.142" stroke="#313D3F"/>
<path d="M630.796 388.352C621.882 383.568 611.357 392.493 603.876 406.432C596.395 420.371 601.725 434.543 608.707 439.525C617.621 444.309 631.881 439.154 639.362 425.214C646.843 411.275 639.71 393.136 630.796 388.352Z" fill="#3E646A"/>
<path d="M608.707 439.525C617.621 444.309 631.881 439.154 639.362 425.214C629.4 440.675 614.775 441.197 608.707 439.525Z" fill="#385A5F"/>
<path d="M607.001 400.549C600.396 409.127 596.473 424 604.917 435.702C606.343 418.417 616.197 409.478 620.856 401.74C625.515 394.001 627.328 390.397 624.146 388.304C620.964 386.211 614.002 391.457 607.001 400.549Z" fill="#374A4D"/>
<path d="M636.215 404.218C635.961 403.752 634.267 402.865 634.056 403.585C633.845 404.305 630.847 413.198 632.835 413.232C637.407 410.821 636.47 404.683 636.215 404.218Z" fill="#374A4C"/>
<path d="M636.216 404.218C636.47 404.683 637.407 410.821 632.835 413.231C636.324 410.194 636.542 405.957 636.216 404.218Z" fill="#293739"/>
<path d="M70.8203 342.483C72.8511 339.77 69.2532 342.676 72.3028 341.197C75.3523 339.719 78.7115 338.993 82.0993 339.08C85.4871 339.166 88.8049 340.063 91.7751 341.695C94.7452 343.327 97.2812 345.646 99.1709 348.459C101.061 351.272 102.249 354.497 102.637 357.864C103.024 361.231 102.6 364.641 101.399 367.81C100.198 370.979 98.2553 373.814 95.7338 376.078C93.2122 378.343 96.434 374.877 93.1545 375.731L91.5661 369.632C93.8715 369.032 89.7505 372.981 91.5231 371.389C93.2957 369.797 94.6612 367.804 95.5055 365.577C96.3497 363.349 96.6481 360.951 96.3756 358.585C96.1031 356.218 95.2677 353.951 93.9393 351.974C92.6109 349.996 90.8281 348.365 88.7402 347.218C86.6523 346.071 84.32 345.441 81.9385 345.38C79.5569 345.319 77.1955 345.83 75.0517 346.869C72.908 347.908 77.2933 344.352 75.8657 346.26L70.8203 342.483Z" fill="#8C8C8C"/>
<path d="M30.5225 370.68L70.5967 335.926L97.8683 375.468L65.8088 403.271L30.5225 370.68Z" fill="#AAAAAA"/>
<ellipse cx="81.8377" cy="389.369" rx="21.2182" ry="5.30454" transform="rotate(-40.9335 81.8377 389.369)" fill="#AAAAAA"/>
<path d="M66.0922 403.569L30.5518 370.681C68.745 401.978 69.8059 399.326 82.5363 395.613C81.6522 396.497 78.717 398.901 74.049 401.448C69.381 403.994 66.7995 403.923 66.0922 403.569Z" fill="#989898"/>
<ellipse cx="50.5594" cy="353.303" rx="26.5227" ry="5.30454" transform="rotate(-40.9335 50.5594 353.303)" fill="#8C8C8C"/>
<ellipse cx="50.56" cy="353.303" rx="24.4009" ry="3.18272" transform="rotate(-40.9335 50.56 353.303)" fill="#636363"/>
<path d="M68.9979 337.321C70.1495 338.649 62.8299 346.883 52.649 355.712C42.4681 364.542 33.2812 370.623 32.1295 369.295C30.9779 367.967 2.70105 365.318 38.6153 357.342C59.8049 350.2 67.8462 335.993 68.9979 337.321Z" fill="#5F372A"/>
<path d="M24.3211 358.445C23.2602 359.506 15.8673 361.76 14.7733 357.384C13.7124 353.14 19.0165 358.975 24.3211 358.445Z" fill="#5F372A"/>
<path d="M68.9979 337.321C70.1496 338.649 62.8299 346.883 52.649 355.712C42.4681 364.542 33.2813 370.623 32.1296 369.295C30.9779 367.967 16.1235 367.093 40.1005 359.011C61.29 351.869 67.8463 335.993 68.9979 337.321Z" fill="#47291F"/>
<path d="M122.815 375.042C124.253 377.51 126.12 384.312 122.079 391.775" stroke="black" stroke-opacity="0.5" stroke-width="2" stroke-linecap="round"/>
<path d="M107.845 310.955C118.372 306.063 138.571 296.904 148.949 291.715" stroke="black" stroke-opacity="0.5" stroke-width="2" stroke-linecap="round"/>
<path d="M116.227 294.803C124.986 293.273 133.29 289.333 141.541 286.159" stroke="black" stroke-opacity="0.5" stroke-width="2" stroke-linecap="round"/>
<path d="M595.939 311.826C604.11 315.911 612.35 319.733 620.636 323.557" stroke="black" stroke-opacity="0.5" stroke-width="2" stroke-linecap="round"/>
<path d="M605.201 309.357C622.2 315.085 638.768 321.742 655.828 327.262" stroke="black" stroke-opacity="0.5" stroke-width="2" stroke-linecap="round"/>
<path d="M38.3577 354.727C35.6527 353.146 30.112 349.186 30.1194 352.686C30.1268 356.185 35.6588 356.062 38.3577 354.727Z" fill="#5F372A"/>
<ellipse cx="67.9027" cy="424.79" rx="30.3563" ry="2.79598" fill="black" fill-opacity="0.3"/>
<path d="M592.29 408.873C589.284 416.476 585.818 434.653 596.003 446.535" stroke="black" stroke-opacity="0.5" stroke-width="2" stroke-linecap="round"/>
<path d="M581.185 422.783C579.746 425.251 577.879 432.052 581.92 439.516" stroke="black" stroke-opacity="0.5" stroke-width="2" stroke-linecap="round"/>
<ellipse cx="610.318" cy="454.748" rx="19.9713" ry="1.5977" fill="black" fill-opacity="0.3"/>
<path d="M558.828 297.074L635.71 300.014C650.931 300.597 663.742 288.729 664.325 273.508C664.907 258.287 653.04 245.476 637.818 244.894L531.458 240.825L530.477 266.468C529.855 282.748 542.548 296.451 558.828 297.074Z" stroke="white"/>
<path d="M518.401 255.613C517.767 272.17 530.676 286.105 547.232 286.738L624.114 289.678C639.611 290.271 652.654 278.189 653.247 262.692V262.692C653.84 247.195 641.758 234.151 626.26 233.558L519.4 229.471L518.401 255.613Z" fill="#3E646A"/>
<circle cx="558.465" cy="259.616" r="5.99138" transform="rotate(2.19045 558.465 259.616)" fill="white"/>
<circle cx="586.404" cy="260.684" r="5.99138" transform="rotate(2.19045 586.404 260.684)" fill="white"/>
<circle cx="614.343" cy="261.753" r="5.99138" transform="rotate(2.19045 614.343 261.753)" fill="white"/>
<defs>
<filter id="filter0_d_706_236" x="189.784" y="138.988" width="36.9102" height="57.1401" filterUnits="userSpaceOnUse" color-interpolation-filters="sRGB">
<feFlood flood-opacity="0" result="BackgroundImageFix"/>
<feColorMatrix in="SourceAlpha" type="matrix" values="0 0 0 0 0 0 0 0 0 0 0 0 0 0 0 0 0 0 127 0" result="hardAlpha"/>
<feOffset dx="2" dy="2"/>
<feComposite in2="hardAlpha" operator="out"/>
<feColorMatrix type="matrix" values="0 0 0 0 0 0 0 0 0 0 0 0 0 0 0 0 0 0 0.1 0"/>
<feBlend mode="normal" in2="BackgroundImageFix" result="effect1_dropShadow_706_236"/>
<feBlend mode="normal" in="SourceGraphic" in2="effect1_dropShadow_706_236" result="shape"/>
</filter>
<radialGradient id="paint0_radial_706_236" cx="0" cy="0" r="1" gradientUnits="userSpaceOnUse" gradientTransform="translate(319 290) rotate(100.042) scale(48.7468 38.9753)">
<stop offset="0.375231" stop-color="#FAF9FC"/>
<stop offset="1" stop-color="#B5B1BF"/>
</radialGradient>
<radialGradient id="paint1_radial_706_236" cx="0" cy="0" r="1" gradientUnits="userSpaceOnUse" gradientTransform="translate(406.564 296.271) rotate(79.958) scale(48.7468 38.9753)">
<stop offset="0.375231" stop-color="#FAF9FC"/>
<stop offset="1" stop-color="#B5B1BF"/>
</radialGradient>
</defs>
</svg>
