<svg width="608" height="741" viewBox="0 0 608 741" fill="none" xmlns="http://www.w3.org/2000/svg">
<path d="M50.3682 622.152C-14.0309 607.9 -13.6429 462.806 38.4656 412.066C90.5741 361.326 2.63243 232.393 61.9143 77.2002C121.196 -77.9928 482.863 158.586 559.162 285.658C635.46 412.73 445.199 519.562 420.647 630.497C396.095 741.431 318.196 776.785 217.72 696.046C117.244 615.307 114.767 636.405 50.3682 622.152Z" fill="#C5EAC9"/>
<path d="M511 487C511 447.603 505.038 408.593 493.454 372.195C481.871 335.797 464.892 302.726 443.488 274.868C422.084 247.01 396.674 224.913 368.709 209.836C340.743 194.76 310.77 187 280.5 187C250.23 187 220.257 194.76 192.291 209.836C164.326 224.913 138.916 247.01 117.512 274.868C96.108 302.726 79.1295 335.797 67.5458 372.195C55.9621 408.593 50 447.603 50 487L511 487Z" fill="#ACA4D9"/>
<ellipse cx="289.829" cy="517.667" rx="82.7508" ry="26.5227" fill="black" fill-opacity="0.3"/>
<path d="M26.3574 137.913C32.5591 58.7993 47.0221 -16.7101 175.13 5.38288" stroke="#C5EAC9" stroke-width="2" stroke-linecap="round"/>
<path d="M553.438 467.9C607.344 390.121 646.2 302.161 534.114 224" stroke="#C5EAC9" stroke-width="2" stroke-linecap="round"/>
<path d="M80.4092 641.469C109.895 642.299 137.039 653.006 171.938 682.984" stroke="#C5EAC9" stroke-width="2" stroke-linecap="round"/>
<ellipse cx="277.101" cy="518.142" rx="82.7508" ry="26.5227" fill="#476B72"/>
<path d="M319.538 495.333L295.137 516.021C289.302 510.539 267.845 492.065 277.632 491.62C289.302 491.089 314.233 493.742 319.538 495.333Z" fill="#34555A"/>
<ellipse cx="275.511" cy="509.124" rx="23.8704" ry="12.2004" fill="#3E646A"/>
<rect x="251.64" y="462.975" width="47.7409" height="45.6191" fill="#3E646A"/>
<path d="M299.381 479.949L251.64 477.297V470.932L299.381 472.523V479.949Z" fill="#34555A"/>
<path d="M376.298 326.224L397.753 361.581L391.488 448.794L366.748 479.207L376.298 326.224Z" fill="#34555A"/>
<path d="M169.419 398.578L110 421.5L83.9999 377.5L87.4996 342" stroke="#383838" stroke-width="15" stroke-linecap="round"/>
<path d="M158 411L159 394.5L165 392L164.5 408.5L158 411Z" fill="#272727"/>
<path d="M383.722 404.095L433.5 424.5L419 464.5L419 478.5" stroke="#383838" stroke-width="15" stroke-linecap="round"/>
<path d="M392.5 399.5L389.5 414.5L381 411L386.5 395.5L392.5 399.5Z" fill="#272727"/>
<path d="M167.993 312.432L389.558 323.784L378.978 481.117L157.442 468.386L167.993 312.432Z" fill="#476B72"/>
<path d="M392.21 330.15L389.557 323.784L378.978 481.117L383.192 476.555L392.21 330.15Z" fill="#3E646A"/>
<path d="M176.602 320.887L379.588 331.639L370.672 464.628L167.68 452.977L176.602 320.887Z" fill="#EBDCDC"/>
<path d="M292.891 419.08L243.955 418.285C243.955 418.285 248.925 443.606 270.078 443.249C291.231 442.893 292.891 419.08 292.891 419.08Z" fill="#383838"/>
<path d="M273.262 441.875C285.999 442.231 290.5 428.5 290.5 428.5L274.603 428.909L258.705 429.317C258.705 429.317 260.525 441.518 273.262 441.875Z" fill="#B14545"/>
<path d="M273.262 441.875C285.999 442.231 290.5 428.5 290.5 428.5C290.5 428.5 285.213 438.078 273.534 437.796C261.856 437.513 258.705 429.317 258.705 429.317C258.705 429.317 260.525 441.518 273.262 441.875Z" fill="#783F3F"/>
<path d="M201.777 359.324C205.596 341.501 221.05 336.338 228.299 335.984L215.038 347.654L201.777 359.324Z" fill="#383838"/>
<path d="M347.087 365.947C344.179 347.953 329.007 342.011 321.785 341.289L334.436 353.618L347.087 365.947Z" fill="#383838"/>
<path d="M203.9 384.256C205.405 369.968 218.137 355.602 232.013 359.324C244.452 362.661 247.206 376.919 244.744 389.56C242.097 403.152 230.899 414.407 217.691 410.248C206.38 406.687 202.657 396.049 203.9 384.256Z" fill="url(#paint0_radial_733_518)"/>
<path d="M216.662 385.367C217.386 378.423 223.512 371.443 230.189 373.252C236.174 374.873 237.499 381.802 236.314 387.945C235.041 394.549 229.652 400.019 223.297 397.998C217.855 396.267 216.064 391.098 216.662 385.367Z" fill="#405B41"/>
<path d="M216.662 385.367C217.386 378.423 221.823 376.19 228.5 377.999C234.485 379.62 237.499 381.802 236.314 387.944C235.041 394.549 229.652 400.018 223.297 397.998C217.855 396.267 216.064 391.098 216.662 385.367Z" fill="#629F64"/>
<path d="M219.81 385.448C220.305 380.241 224.497 375.005 229.065 376.362C233.16 377.578 234.067 382.774 233.256 387.381C232.385 392.335 228.698 396.437 224.35 394.921C220.626 393.623 219.401 389.746 219.81 385.448Z" fill="#383838"/>
<path d="M228.752 376.74C228.75 379.321 225.323 381.41 221.098 381.406C216.873 381.403 213.449 379.308 213.451 376.727C213.453 374.147 216.88 372.058 221.106 372.062C225.331 372.065 228.755 374.16 228.752 376.74Z" fill="white"/>
<path d="M333.665 390.527C332.16 376.239 319.428 361.873 305.551 365.595C293.112 368.932 290.358 383.19 292.82 395.831C295.467 409.423 306.666 420.678 319.873 416.519C331.185 412.958 334.907 402.32 333.665 390.527Z" fill="url(#paint1_radial_733_518)"/>
<path d="M320.903 391.638C320.179 384.694 314.053 377.714 307.376 379.523C301.391 381.144 300.066 388.073 301.25 394.216C302.524 400.82 307.912 406.29 314.267 404.269C319.71 402.538 321.501 397.369 320.903 391.638Z" fill="#405B41"/>
<path d="M320.903 391.638C320.179 384.695 315.741 382.462 309.064 384.271C303.079 385.892 300.066 388.073 301.25 394.216C302.524 400.821 307.912 406.29 314.267 404.269C319.71 402.538 321.501 397.369 320.903 391.638Z" fill="#629F64"/>
<path d="M317.755 391.72C317.259 386.512 313.068 381.277 308.499 382.633C304.404 383.849 303.498 389.046 304.308 393.653C305.18 398.607 308.867 402.709 313.215 401.193C316.938 399.895 318.164 396.018 317.755 391.72Z" fill="#383838"/>
<path d="M296.004 382.685C296.006 385.265 299.433 387.354 303.658 387.351C307.884 387.347 311.307 385.252 311.305 382.672C311.303 380.091 307.876 378.002 303.651 378.006C299.425 378.009 296.002 380.104 296.004 382.685Z" fill="white"/>
<path d="M314.836 191.064L461.636 198.732C477.906 199.582 490.407 213.46 489.557 229.731L487.784 263.684C486.934 279.954 473.055 292.455 456.785 291.605L280.526 282.399L283.838 218.985C284.688 202.715 298.566 190.214 314.836 191.064Z" stroke="white"/>
<path d="M261.338 235.959C262.203 219.413 276.316 206.701 292.862 207.565L439.662 215.233C456.208 216.097 468.921 230.211 468.057 246.757L466.283 280.71C465.419 297.256 451.305 309.969 434.759 309.105L258 299.872L261.338 235.959Z" fill="#3E646A"/>
<path d="M278.479 265.074L279.814 239.515L288.766 239.983C291.868 240.145 294.189 240.865 295.73 242.142C297.271 243.408 297.982 245.188 297.862 247.481C297.797 248.734 297.417 249.823 296.723 250.749C296.03 251.663 295.099 252.312 293.929 252.697C295.222 253.093 296.217 253.808 296.914 254.842C297.623 255.877 297.94 257.114 297.865 258.553C297.736 261.011 296.855 262.831 295.221 264.013C293.587 265.195 291.318 265.721 288.414 265.593L278.479 265.074ZM284.326 254.22L283.966 261.119L288.477 261.354C289.718 261.419 290.699 261.177 291.42 260.628C292.153 260.068 292.547 259.267 292.601 258.225C292.723 255.885 291.574 254.634 289.154 254.472L284.326 254.22ZM284.521 250.498L288.418 250.702C291.077 250.794 292.46 249.804 292.568 247.733C292.629 246.574 292.333 245.726 291.68 245.187C291.04 244.637 289.995 244.324 288.544 244.249L284.857 244.056L284.521 250.498ZM309.83 267.064C307.044 266.918 304.819 265.945 303.153 264.145C301.498 262.346 300.745 260.024 300.894 257.18L300.919 256.688C301.019 254.781 301.477 253.097 302.292 251.638C303.108 250.167 304.21 249.063 305.598 248.325C306.999 247.577 308.565 247.248 310.297 247.339C312.895 247.474 314.894 248.4 316.295 250.116C317.707 251.833 318.335 254.195 318.178 257.203L318.069 259.274L305.975 258.642C306.074 259.891 306.513 260.912 307.293 261.704C308.085 262.496 309.113 262.925 310.377 262.991C312.331 263.093 313.895 262.465 315.069 261.106L317.416 264.028C316.599 265.065 315.526 265.853 314.195 266.394C312.865 266.923 311.41 267.146 309.83 267.064ZM310.065 251.445C309.058 251.393 308.221 251.69 307.554 252.335C306.898 252.982 306.45 253.932 306.208 255.187L313.265 255.556L313.286 255.152C313.321 254.027 313.062 253.145 312.509 252.506C311.956 251.855 311.141 251.502 310.065 251.445ZM326.305 248.527L326.352 250.659C327.784 249.079 329.647 248.349 331.941 248.469C334.387 248.597 336.016 249.65 336.828 251.629C338.263 249.768 340.215 248.901 342.684 249.03C344.744 249.138 346.245 249.821 347.189 251.079C348.133 252.325 348.542 254.153 348.416 256.564L347.783 268.694L342.692 268.428L343.325 256.316C343.381 255.239 343.211 254.444 342.816 253.931C342.42 253.405 341.691 253.115 340.626 253.059C339.104 252.98 338.013 253.65 337.352 255.071L336.688 268.115L331.615 267.85L332.247 255.755C332.304 254.655 332.129 253.848 331.722 253.334C331.315 252.819 330.59 252.535 329.549 252.481C328.109 252.406 327.037 252.948 326.331 254.108L325.629 267.537L320.556 267.272L321.548 248.278L326.305 248.527ZM362.028 260.514L352.145 259.998L352.358 255.908L362.241 256.424L362.028 260.514ZM373.068 263.801L377.265 251.189L382.567 251.466L375.167 270.125L370.322 269.872L364.907 250.543L370.208 250.82L373.068 263.801ZM389.175 270.856L384.085 270.59L385.077 251.597L390.168 251.863L389.175 270.856ZM385.035 246.666C385.075 245.905 385.359 245.292 385.888 244.827C386.429 244.362 387.138 244.153 388.016 244.199C388.882 244.244 389.559 244.526 390.048 245.044C390.538 245.563 390.762 246.202 390.723 246.963C390.682 247.735 390.386 248.354 389.834 248.818C389.293 249.282 388.596 249.492 387.741 249.448C386.887 249.403 386.209 249.121 385.708 248.602C385.219 248.084 384.995 247.438 385.035 246.666ZM399.032 252.326L399.076 254.528C400.522 252.902 402.386 252.149 404.668 252.268C406.681 252.373 408.148 253.042 409.069 254.276C409.991 255.509 410.402 257.302 410.302 259.656L409.661 271.926L404.588 271.661L405.223 259.514C405.279 258.437 405.085 257.647 404.642 257.142C404.2 256.626 403.434 256.34 402.346 256.283C400.918 256.209 399.816 256.761 399.038 257.941L398.339 271.335L393.266 271.07L394.258 252.076L399.032 252.326ZM413.237 262.45C413.391 259.489 414.176 257.165 415.59 255.479C417.015 253.793 418.881 253.01 421.187 253.131C423.036 253.227 424.527 253.998 425.66 255.442L426.166 245.752L431.257 246.017L429.848 272.981L425.267 272.741L425.127 270.71C423.78 272.224 422.112 272.929 420.123 272.825C417.887 272.708 416.137 271.736 414.871 269.91C413.618 268.073 413.073 265.586 413.237 262.45ZM418.29 263.083C418.198 264.862 418.436 266.242 419.007 267.222C419.578 268.202 420.454 268.723 421.636 268.785C423.204 268.867 424.345 268.263 425.058 266.975L425.449 259.479C424.886 258.124 423.827 257.405 422.27 257.324C419.824 257.196 418.498 259.116 418.29 263.083ZM433.496 263.473C433.594 261.588 434.045 259.928 434.847 258.491C435.65 257.055 436.751 255.968 438.151 255.231C439.562 254.495 441.169 254.175 442.971 254.269C445.534 254.403 447.582 255.296 449.115 256.948C450.66 258.601 451.456 260.779 451.502 263.48L451.47 264.781C451.318 267.695 450.382 269.993 448.663 271.675C446.945 273.346 444.716 274.109 441.978 273.966C439.239 273.823 437.097 272.831 435.55 270.99C434.015 269.15 433.326 266.72 433.484 263.701L433.496 263.473ZM438.55 264.106C438.456 265.908 438.723 267.307 439.352 268.302C439.981 269.285 440.927 269.81 442.191 269.876C443.42 269.94 444.404 269.522 445.144 268.622C445.884 267.71 446.308 266.219 446.416 264.147C446.508 262.38 446.234 260.993 445.595 259.986C444.955 258.978 444.009 258.442 442.757 258.376C441.516 258.312 440.531 258.747 439.802 259.683C439.073 260.607 438.656 262.082 438.55 264.106Z" fill="white"/>
<path d="M437.296 538.499C437.296 538.499 437.296 530 449 522C455.854 517.314 472 524 466.5 512C460.272 498.412 482.479 495.56 464 491.141C442.5 486 442.064 496.602 420 499.5C404.893 501.484 351.065 474.639 337 480.5C331 483 331 487 331 487" stroke="#313D3F"/>
<path d="M438.699 535.711C446.577 542.057 442.457 555.227 432.533 567.547C422.609 579.867 407.481 580.479 400.173 575.989C392.294 569.643 391.487 554.501 401.411 542.181C411.335 529.861 430.82 529.365 438.699 535.711Z" fill="#3E646A"/>
<path d="M400.173 575.989C392.294 569.643 391.487 554.501 401.411 542.181C391.053 557.379 396.27 571.052 400.173 575.989Z" fill="#385A5F"/>
<path d="M436.734 562.377C431.406 571.802 419.236 581.209 405.17 577.99C420.534 569.943 424.928 557.386 430.24 550.08C435.553 542.774 438.166 539.701 441.333 541.816C444.5 543.932 442.38 552.387 436.734 562.377Z" fill="#374A4D"/>
<path d="M421.975 536.899C422.502 536.952 423.98 538.167 423.399 538.642C422.818 539.117 415.795 545.342 414.99 543.524C415.429 538.374 421.447 536.846 421.975 536.899Z" fill="#374A4C"/>
<path d="M421.975 536.9C421.447 536.847 415.429 538.374 414.99 543.524C416.428 539.128 420.246 537.276 421.975 536.9Z" fill="#293739"/>
<path d="M87.5621 483.73C90.8738 483.01 86.2518 482.848 89.5242 483.73C92.7965 484.611 95.8101 486.263 98.3128 488.548C100.815 490.833 102.734 493.684 103.909 496.863C105.084 500.042 105.48 503.456 105.064 506.819C104.649 510.183 103.434 513.398 101.521 516.195C99.6079 518.992 97.0528 521.291 94.0692 522.898C91.0857 524.505 87.7606 525.374 84.3722 525.433C80.9838 525.491 85.6884 524.984 82.6512 523.481L85.4471 517.832C87.5822 518.889 81.8816 519.173 84.2635 519.131C86.6455 519.09 88.9829 518.479 91.0803 517.35C93.1776 516.22 94.9738 514.604 96.3186 512.637C97.6633 510.671 98.5175 508.411 98.8096 506.047C99.1017 503.682 98.8232 501.282 97.9974 499.048C97.1717 496.813 95.8227 494.809 94.0634 493.203C92.304 491.596 90.1856 490.435 87.8852 489.815C85.5849 489.196 91.2273 489.383 88.8993 489.888L87.5621 483.73Z" fill="#8C8C8C"/>
<path d="M38.644 478.629H91.6894L86.3849 526.37H43.9486L38.644 478.629Z" fill="#AAAAAA"/>
<ellipse cx="65.1664" cy="526.369" rx="21.2182" ry="5.30454" fill="#AAAAAA"/>
<path d="M43.9671 526.781L38.665 478.649C47.0138 527.317 49.553 526.008 61.6033 531.544C60.3561 531.632 56.5631 531.526 51.3684 530.391C46.1736 529.256 44.2697 527.511 43.9671 526.781Z" fill="#989898"/>
<ellipse cx="65.1663" cy="478.629" rx="26.5227" ry="5.30454" fill="#8C8C8C"/>
<ellipse cx="65.167" cy="478.629" rx="24.4009" ry="3.18272" fill="#5F372A"/>
<path d="M89.5679 478.629C89.5679 480.387 78.6432 481.812 65.167 481.812C51.6908 481.812 40.7661 480.387 40.7661 478.629C46 478 51 477.5 65.5 477C76.5 477 85.5 477.5 89.5679 478.629Z" fill="#47291F"/>
<path d="M80.1801 340.11C79.5179 342.698 78.6128 371.331 76.3945 370.763C73.2345 366.388 64.8435 365.393 69.6261 318.829C70.4935 315.438 71.798 315.38 74.0163 315.948C76.419 318.503 80.8423 337.522 80.1801 340.11Z" fill="#4E7178"/>
<path d="M91.8809 313.03C88.6331 339.659 84.2464 370.989 81.8433 370.374C79.4402 369.759 76.5295 331.212 80.9132 311.293C81.5755 308.705 84.1539 305.346 86.557 305.961C88.9602 306.576 92.5431 310.442 91.8809 313.03Z" fill="#4E7178"/>
<path d="M106.118 314.533C100.356 341.232 88.7854 368.584 86.3823 367.969C83.9791 367.354 84.6171 338.631 95.7425 311.878C96.4993 308.92 101.085 304.686 103.488 305.301C105.891 305.916 106.875 311.575 106.118 314.533Z" fill="#4E7178"/>
<path d="M119.328 320.053C114.5 344.494 97.9203 362.006 95.8869 361.486C93.8535 360.966 92.579 353.507 108.376 315.467C109.038 312.879 112.315 309.827 115.273 310.813C119.873 312.347 119.99 317.465 119.328 320.053Z" fill="#4E7178"/>
<path d="M127.638 347.5C126.68 354.031 117.449 356.661 112.895 361.915C109.567 361.064 103.913 349.631 109.868 348.659C116.266 343.164 118.796 340.245 123.568 341.109C126.895 341.96 128.348 344.727 127.638 347.5Z" fill="#4E7178"/>
<path d="M103.911 380.301C102.823 384.552 79.8502 382.346 72.8213 380.548C68.3848 379.412 65.3355 374.96 66.4235 370.708C67.5114 366.456 71.1649 361.579 75.6014 362.714C80.0379 363.85 104.999 376.049 103.911 380.301Z" fill="#4E7178"/>
<path d="M108.199 377.476C107.07 384.676 95.6879 382.834 94.7636 382.597C93.8393 382.361 82.3363 364.267 82.8093 362.419C83.2823 360.57 100.356 374.173 103.031 372.587C104.292 371.84 108.85 373.323 108.199 377.476Z" fill="#4E7178"/>
<path d="M111.272 364.079C109.711 370.18 102.485 373.874 99.3423 373.07C96.1998 372.265 71.5419 366.036 73.1029 359.936C69.688 325.895 105.97 348.019 109.113 348.823C112.255 349.627 118.967 354.911 111.272 364.079Z" fill="#4E7178"/>
<path d="M73.034 342.086C76.0129 338.806 85.8797 334.532 101.516 343.668C84.8659 339.051 81.511 339.619 73.034 342.086Z" fill="#34555A"/>
<path d="M86.5533 367.3C85.6014 362.658 88.9799 352.8 109.113 348.822C99.951 348.855 82.4132 352.261 86.5533 367.3Z" fill="#34555A"/>
<path d="M77.7336 371.106C74.3088 369.16 71.6468 365.625 71.0708 363.695C64.5086 368.435 65.9873 373.806 66.8976 375.822C69.9336 372.32 74.5811 370.418 77.7336 371.106Z" fill="#34555A"/>
<path d="M105.246 381.712C110.376 378.389 108.563 372.932 104.126 372.153C104.126 372.153 101.718 373.119 100.179 373.64C98.6353 374.162 96.6532 374.877 96.6532 374.877C96.6532 374.877 100.767 375.854 102.507 377.088C107.035 380.299 105.246 381.712 105.246 381.712Z" fill="#34555A"/>
<path d="M438.154 466C437.886 470.019 439.154 480.5 413.154 473C402.754 470 395.654 468.418 395.654 464C395.689 457 404.213 457 414.154 457C427.154 457 438.654 458.5 438.154 466Z" fill="#4E7178"/>
<path d="M407.154 515C397.554 524.2 395.821 511.5 396.154 504L417.654 500L429.654 506.5C428.154 513 422.154 513 419.654 511.5C414.154 518.5 408.988 516.333 407.154 515Z" fill="#4E7178"/>
<path d="M403 457.5C392.5 459 394.5 468 400.5 469C400.5 469 398.5 466.375 398.5 464C398.5 458.946 403 457.5 403 457.5Z" fill="#34555A"/>
<path d="M433 475C436.5 467 435 463.5 430.5 458.5C430.5 458.5 435.974 459.631 437.5 462.5C438.967 465.258 438.731 468.128 437.5 471C436 474.5 433 475 433 475Z" fill="#34555A"/>
<path d="M436.654 500.5C435.171 513 425.423 504 414.654 504C403.884 504 381.95 509.331 384.155 495C387.154 475.5 403.884 464 414.654 464C425.423 464 440.154 471 436.654 500.5Z" fill="#4E7178"/>
<defs>
<radialGradient id="paint0_radial_733_518" cx="0" cy="0" r="1" gradientUnits="userSpaceOnUse" gradientTransform="translate(225 384.999) rotate(100.042) scale(48.7468 38.9753)">
<stop offset="0.375231" stop-color="#FAF9FC"/>
<stop offset="1" stop-color="#B5B1BF"/>
</radialGradient>
<radialGradient id="paint1_radial_733_518" cx="0" cy="0" r="1" gradientUnits="userSpaceOnUse" gradientTransform="translate(312.564 391.27) rotate(79.958) scale(48.7468 38.9753)">
<stop offset="0.375231" stop-color="#FAF9FC"/>
<stop offset="1" stop-color="#B5B1BF"/>
</radialGradient>
</defs>
</svg>
